<svg width="32" height="32" viewBox="0 0 32 32" fill="none" xmlns="http://www.w3.org/2000/svg">
<path d="M0 25.7833C0 29.2107 2.78706 32 6.21281 32H25.7702C29.196 32 31.983 29.2107 31.983 25.7842V6.21575C31.983 2.78833 29.195 0 25.7702 0H6.21281C2.78706 0 0 2.78833 0 6.21575V25.7842V25.7833Z" fill="url(#paint0_linear_155_1582)"/>
<path d="M25.0403 3.32473V3.32568L27.47 8.26988L7.77051 8.62682L21.2082 2.01815C21.889 1.68286 22.6739 1.63205 23.3917 1.8768C24.1095 2.12156 24.7021 2.64202 25.0403 3.32473Z" fill="#D8D8D8"/>
<path d="M24.5264 4.36516L4.51562 9.40214L29.365 10.0516L28.5711 6.78613C28.3516 5.92629 27.8028 5.18891 27.0447 4.73524C26.2865 4.28156 25.3808 4.14851 24.5255 4.36516H24.5264ZM26.5262 23.234C26.8291 23.235 27.1292 23.1759 27.4094 23.0601C27.6896 22.9444 27.9444 22.7742 28.1593 22.5594C28.3741 22.3445 28.5449 22.0891 28.6617 21.8078C28.7785 21.5265 28.8391 21.2248 28.8401 20.92C28.8401 19.6418 27.8036 18.605 26.5262 18.605C26.2233 18.6042 25.9232 18.6634 25.6431 18.7792C25.3629 18.8951 25.1082 19.0654 24.8934 19.2803C24.6786 19.4953 24.508 19.7507 24.3913 20.0321C24.2746 20.3134 24.2141 20.6151 24.2132 20.92C24.2132 22.1982 25.2488 23.234 26.5271 23.234H26.5262Z" fill="#F89440"/>
<path d="M26.1221 8.98414H4.82361C4.75308 8.98376 4.68316 8.99738 4.61786 9.0242C4.55255 9.05103 4.49313 9.09053 4.443 9.14047C4.39286 9.19041 4.35299 9.2498 4.32565 9.31525C4.29832 9.3807 4.28406 9.45093 4.28369 9.52192C4.28369 9.81827 4.52543 10.0597 4.82361 10.0597H26.1212C29.3325 10.0597 31.9436 12.7089 31.9436 15.964L32.0001 16.6504V12.3178C30.7867 10.3201 28.6044 8.98509 26.1212 8.98509L26.1221 8.98414Z" fill="#F89440"/>
<g opacity="0.65" filter="url(#filter0_i_155_1582)">
<path d="M4.15457 28.2828C4.78291 28.2828 5.29272 27.7715 5.29272 27.1438C5.29272 26.5151 4.78291 26.0057 4.15457 26.0057C3.52623 26.0057 3.01642 26.5151 3.01642 27.1438C3.01642 27.7724 3.52623 28.2818 4.15457 28.2818V28.2828ZM3.81124 25.485C4.44146 25.3448 4.84216 24.7332 4.70577 24.1197C4.56938 23.5061 3.94669 23.1227 3.31648 23.2628C2.68626 23.4039 2.28461 24.0155 2.42194 24.6291C2.55833 25.2426 3.18009 25.626 3.81124 25.485ZM6.82312 29.4521C7.45145 29.4521 7.96127 28.9427 7.96127 28.314C7.96127 27.6853 7.45145 27.1759 6.82312 27.1759C6.19478 27.1759 5.68496 27.6853 5.68496 28.314C5.68496 28.9427 6.19478 29.453 6.82312 29.453V29.4521ZM6.524 26.517C7.15233 26.517 7.66215 26.0076 7.66215 25.3789C7.66215 24.7502 7.15233 24.2409 6.524 24.2409C5.89566 24.2409 5.38584 24.7502 5.38584 25.3789C5.38584 26.0076 5.89566 26.517 6.524 26.517Z" fill="#F89440"/>
</g>
<defs>
<filter id="filter0_i_155_1582" x="2.39502" y="23.2339" width="5.56641" height="10.2191" filterUnits="userSpaceOnUse" color-interpolation-filters="sRGB">
<feFlood flood-opacity="0" result="BackgroundImageFix"/>
<feBlend mode="normal" in="SourceGraphic" in2="BackgroundImageFix" result="shape"/>
<feColorMatrix in="SourceAlpha" type="matrix" values="0 0 0 0 0 0 0 0 0 0 0 0 0 0 0 0 0 0 127 0" result="hardAlpha"/>
<feOffset dy="4"/>
<feGaussianBlur stdDeviation="2"/>
<feComposite in2="hardAlpha" operator="arithmetic" k2="-1" k3="1"/>
<feColorMatrix type="matrix" values="0 0 0 0 0 0 0 0 0 0 0 0 0 0 0 0 0 0 0.25 0"/>
<feBlend mode="normal" in2="shape" result="effect1_innerShadow_155_1582"/>
</filter>
<linearGradient id="paint0_linear_155_1582" x1="28.9147" y1="1.3918" x2="2.36946" y2="31.3675" gradientUnits="userSpaceOnUse">
<stop stop-color="white"/>
<stop offset="0.306" stop-color="white"/>
<stop offset="0.775" stop-color="white"/>
<stop offset="1" stop-color="white"/>
</linearGradient>
</defs>
</svg>
