<svg width="67" height="67" viewBox="0 0 67 67" fill="none" xmlns="http://www.w3.org/2000/svg">
<path d="M66.7778 33.3889C66.7778 14.9487 51.8292 0 33.3889 0C14.9487 0 0 14.9487 0 33.3889C0 51.8292 14.9487 66.7778 33.3889 66.7778H66.7778V61.213H51.8224C61.1573 55.0327 66.7738 44.5851 66.7778 33.3889ZM49.7437 55.8995C46.0144 58.6086 40.7933 57.7826 38.0842 54.0518C35.3752 50.3225 36.2012 45.1028 39.9306 42.3923C43.6613 39.6833 48.881 40.5093 51.5901 44.24C54.3005 47.9694 53.4731 53.1891 49.7437 55.8995ZM49.3334 19.432C53.7176 18.0069 58.4265 20.4061 59.8517 24.7903C61.2755 29.1759 58.8762 33.8848 54.492 35.3086C50.1078 36.7338 45.3989 34.3345 43.9738 29.9503C42.5499 25.5661 44.9492 20.8558 49.3334 19.432ZM33.3889 5.56482C37.9986 5.56482 41.7361 9.30232 41.7361 13.912C41.7361 18.5218 37.9986 22.2593 33.3889 22.2593C28.7792 22.2593 25.0417 18.5218 25.0417 13.912C25.0417 9.30232 28.7792 5.56482 33.3889 5.56482ZM6.92614 24.7903C8.35131 20.4061 13.0602 18.0069 17.4444 19.4307C21.8286 20.8558 24.2279 25.5647 22.8041 29.9489C21.3789 34.3331 16.67 36.7324 12.2858 35.3086C7.90161 33.8848 5.50232 29.1759 6.92614 24.7903ZM28.6936 54.0518C25.9846 57.7826 20.7635 58.6086 17.0341 55.8995C13.3048 53.1891 12.4774 47.9694 15.1878 44.24C17.8968 40.5107 23.1179 39.6833 26.8473 42.3937C30.5766 45.1028 31.4026 50.3225 28.6936 54.0518ZM30.6065 33.3889C30.6065 31.8523 31.8523 30.6065 33.3889 30.6065C34.9255 30.6065 36.1713 31.8523 36.1713 33.3889C36.1713 34.9255 34.9255 36.1713 33.3889 36.1713C31.8523 36.1713 30.6065 34.9255 30.6065 33.3889Z" fill="#BD4740"/>
</svg>
