<svg width="25" height="24" viewBox="0 0 25 24" xmlns="http://www.w3.org/2000/svg">
<path d="M24.2222 12C24.2222 5.37256 18.8496 0 12.2222 0C5.59473 0 0.222168 5.37256 0.222168 12C0.222168 18.6274 5.59473 24 12.2222 24H24.2222V22H18.8472C22.2021 19.7788 24.2207 16.0239 24.2222 12ZM18.1001 20.0903C16.7598 21.064 14.8833 20.7671 13.9097 19.4263C12.936 18.0859 13.2329 16.21 14.5732 15.2358C15.9141 14.2622 17.79 14.5591 18.7637 15.8999C19.7378 17.2402 19.4404 19.1162 18.1001 20.0903ZM17.9526 6.98389C19.5283 6.47168 21.2207 7.33398 21.7329 8.90967C22.2446 10.4858 21.3823 12.1782 19.8066 12.6899C18.231 13.2021 16.5386 12.3398 16.0264 10.7642C15.5146 9.18848 16.377 7.49561 17.9526 6.98389ZM12.2222 2C13.8789 2 15.2222 3.34326 15.2222 5C15.2222 6.65674 13.8789 8 12.2222 8C10.5654 8 9.22217 6.65674 9.22217 5C9.22217 3.34326 10.5654 2 12.2222 2ZM2.71143 8.90967C3.22363 7.33398 4.91602 6.47168 6.4917 6.9834C8.06738 7.49561 8.92969 9.18799 8.41797 10.7637C7.90576 12.3394 6.21338 13.2017 4.6377 12.6899C3.06201 12.1782 2.19971 10.4858 2.71143 8.90967ZM10.5347 19.4263C9.56104 20.7671 7.68457 21.064 6.34424 20.0903C5.00391 19.1162 4.70654 17.2402 5.68066 15.8999C6.6543 14.5596 8.53076 14.2622 9.87109 15.2363C11.2114 16.21 11.5083 18.0859 10.5347 19.4263ZM11.2222 12C11.2222 11.4478 11.6699 11 12.2222 11C12.7744 11 13.2222 11.4478 13.2222 12C13.2222 12.5522 12.7744 13 12.2222 13C11.6699 13 11.2222 12.5522 11.2222 12Z"/>
</svg>
