<svg width="24" height="24" viewBox="0 0 24 24" fill="none" xmlns="http://www.w3.org/2000/svg">
<path d="M8.56953 3.7645C8.92537 3.7645 9.25324 3.95749 9.42599 4.26862L10.6242 6.42706C10.7811 6.70967 10.7885 7.0515 10.6439 7.34063L9.48956 9.64938C9.48956 9.64938 9.82409 11.3692 11.2241 12.7693C12.6242 14.1693 14.3383 14.4981 14.3383 14.4981L16.6467 13.3439C16.936 13.1992 17.2781 13.2067 17.5608 13.3639L19.7253 14.5673C20.0362 14.7402 20.2289 15.0678 20.2289 15.4235V17.9085C20.2289 19.174 19.0535 20.088 17.8544 19.6833C15.3918 18.8524 11.569 17.2703 9.14612 14.8473C6.72319 12.4244 5.14102 8.60166 4.31006 6.13901C3.90548 4.93994 4.81949 3.7645 6.08494 3.7645H8.56953Z" fill="#817F95"/>
<path fill-rule="evenodd" clip-rule="evenodd" d="M6.08497 4.74407C5.43191 4.74407 5.06607 5.31543 5.23828 5.82581C6.06232 8.26797 7.5867 11.9025 9.83883 14.1546C12.091 16.4068 15.7254 17.9311 18.1677 18.7551C18.6779 18.9273 19.2494 18.5616 19.2494 17.9084V15.4235L17.0848 14.22L14.7764 15.3742C14.5839 15.4705 14.3651 15.5006 14.1538 15.4601L14.3383 14.498C14.1538 15.4601 14.1541 15.4602 14.1538 15.4601L14.1511 15.4596L14.1477 15.4589L14.1391 15.4572L14.1145 15.4521C14.0948 15.4479 14.0687 15.4421 14.0366 15.4345C13.9726 15.4194 13.8847 15.3971 13.777 15.366C13.562 15.3039 13.2658 15.2063 12.9222 15.0598C12.2389 14.7686 11.3438 14.2743 10.5315 13.4619C9.71931 12.6498 9.22361 11.7535 8.93113 11.0694C8.78406 10.7253 8.68568 10.4287 8.6231 10.2134C8.59175 10.1056 8.5692 10.0176 8.5539 9.95349C8.54624 9.92144 8.54039 9.89531 8.53614 9.87564L8.53095 9.85101L8.52921 9.84243L8.52855 9.83909L8.52827 9.83766C8.52821 9.83735 8.52802 9.83639 9.48959 9.64936L8.52802 9.83639C8.48677 9.6243 8.51679 9.40453 8.61342 9.21128L9.76777 6.90253L8.56958 4.74411L6.08497 4.74407ZM10.5314 9.75613C10.5762 9.89956 10.6414 10.086 10.7326 10.2992C10.9574 10.825 11.329 11.4887 11.9168 12.0766C12.5046 12.6643 13.1666 13.0343 13.6903 13.2575C13.9024 13.3479 14.0879 13.4125 14.2305 13.4567L16.2085 12.4677C16.2086 12.4677 16.2085 12.4678 16.2085 12.4677C16.7872 12.1784 17.4714 12.1934 18.0368 12.5077L20.2014 13.7111C20.823 14.0568 21.2085 14.7121 21.2085 15.4235V17.9084C21.2085 19.7863 19.429 21.2485 17.5413 20.6115C15.0581 19.7736 11.0472 18.1337 8.45347 15.5399C5.85976 12.9462 4.21979 8.93531 3.38192 6.45218C2.74496 4.56442 4.20713 2.78488 6.08497 2.78488H8.56956C9.28129 2.78488 9.937 3.17088 10.2825 3.79309L11.4807 5.95158C11.7944 6.51673 11.8093 7.20038 11.5201 7.77868C11.5201 7.77871 11.5201 7.77866 11.5201 7.77868L10.5314 9.75613Z" fill="#817F95"/>
</svg>
