<svg width="98" height="57" viewBox="0 0 98 57" fill="none" xmlns="http://www.w3.org/2000/svg">
<g clip-path="url(#clip0_63_182)">
<path d="M10.2522 35.8798C10.1867 35.8895 10.1251 35.9166 10.0733 35.9585C10.0216 36.0003 9.98165 36.0553 9.95753 36.118C9.93254 36.1798 9.92438 36.2473 9.93387 36.3136L10.0394 37.0748L6.10003 29.3446L4 25.2251L7.23834 29.4008L7.24016 29.4139L12.0703 35.6277L10.2522 35.8798Z" fill="#E9E343"/>
<path d="M11.2125 32.0298L14.4511 35.2975L11.6363 35.6879L7.25164 29.414L7.24982 29.4008L4.18508 25.0239L4.27053 25.002L8.24977 29.0264L8.26329 29.0412L9.03861 29.8232L9.32711 31.9033C9.34158 32.0045 9.39462 32.096 9.4747 32.1579C9.55478 32.2197 9.65541 32.2469 9.75467 32.2336L11.2125 32.0298Z" fill="#E9E343"/>
<path d="M8.80254 28.1806L9.04463 29.926L8.255 29.0407L8.24146 29.0259L4.57506 24.9062L4.76113 24.842L8.80254 28.1806Z" fill="#E9E343"/>
<path d="M8.62282 26.8846L8.79847 28.1511L5.07105 24.7137C5.15766 24.6766 5.24221 24.6365 5.3263 24.593L8.62282 26.8846Z" fill="#E9E343"/>
<path d="M9.12978 26.1806L8.91114 26.2109C8.81172 26.2252 8.7221 26.279 8.66189 26.3607C8.60167 26.4424 8.57576 26.5452 8.58984 26.6468L8.60827 26.7796L5.6034 24.4409C5.70381 24.3852 5.8017 24.3231 5.90579 24.2585L9.12978 26.1806Z" fill="#E9E343"/>
<path d="M10.5765 25.9799L9.23744 26.1657L6.15212 24.0856C6.256 24.0076 6.35781 23.9266 6.45596 23.8428L10.5765 25.9799Z" fill="#E9E343"/>
<path d="M12.1937 25.7557L10.5765 25.9799L6.66238 23.6536C6.76398 23.5593 6.85985 23.459 6.94907 23.358L10.8994 25.166L12.1937 25.7557Z" fill="#E9E343"/>
<path d="M13.9781 25.5082L12.049 25.7757L10.8995 25.166L7.1188 23.164C7.2117 23.0541 7.2991 22.94 7.38283 22.823L11.1512 24.3586L13.9781 25.5082Z" fill="#E9E343"/>
<path d="M96.8497 37.1968L97.945 45.094L92.1382 43.3914L86.6178 41.7694L59.3262 33.7602L28.9416 24.8557L11.7306 19.8056L8.44705 18.8365C8.43863 18.7758 8.42999 18.7134 8.42157 18.6527L8.41452 18.6019C8.4086 18.5592 8.40246 18.5149 8.39654 18.4723C8.39063 18.4296 8.38767 18.4083 8.38312 18.3755L9.78426 18.6727L13.6009 19.481L19.1469 20.6614L28.1064 22.5671L45.4955 26.2666L72.2631 31.9625L87.6264 35.2323C87.613 35.2833 87.6098 35.3367 87.617 35.3891L88.3451 40.6386C88.3593 40.7404 88.4124 40.8326 88.4929 40.8948C88.5735 40.957 88.6748 40.9841 88.7745 40.9703L93.9556 40.2517C94.0484 40.2308 94.13 40.175 94.1839 40.0953C94.2379 40.0156 94.2602 39.9179 94.2466 39.8218L93.7915 36.5408L95.8512 36.9792L96.8497 37.1968Z" fill="#E9E343"/>
<path d="M93.3881 12.2387L94.1162 17.4882L91.6951 17.4445L91.6742 17.4474L91.1452 17.4371L90.8403 15.2389C90.8335 15.1886 90.8171 15.14 90.7919 15.096C90.7667 15.0521 90.7333 15.0136 90.6935 14.9827C90.6538 14.9519 90.6085 14.9293 90.5603 14.9163C90.512 14.9033 90.4618 14.9002 90.4125 14.907L85.2684 15.6205C85.1686 15.6343 85.0786 15.688 85.018 15.7698C84.9575 15.8516 84.9314 15.9547 84.9455 16.0565L85.1216 17.3262L30.8896 16.3491L30.8542 16.354L20.4682 16.166L20.4505 16.1684L16.3196 16.0943L16.3099 16.0956L14.1939 16.0547L14.173 16.0576L12.9773 16.0362L12.958 16.0389L12.24 16.0247L11.7916 16.0167L11.5108 16.0122L90.0855 9.8209C90.3006 10.1495 90.5483 10.4547 90.8246 10.7316C91.5373 11.4531 92.423 11.971 93.3923 12.2331L93.3881 12.2387Z" fill="#E9E343"/>
<path d="M93.3881 12.2387L94.2527 18.4725L92.3411 18.4166L92.2736 18.4143L91.2767 18.3853L90.8403 15.2389C90.8335 15.1886 90.817 15.14 90.7919 15.096C90.7667 15.0521 90.7332 15.0136 90.6935 14.9827C90.6537 14.9519 90.6085 14.9293 90.5602 14.9163C90.512 14.9033 90.4618 14.9002 90.4125 14.907L85.2684 15.6205C85.1686 15.6343 85.0786 15.688 85.018 15.7698C84.9575 15.8516 84.9314 15.9547 84.9455 16.0565L85.2451 18.217L31.8151 16.6555L31.7511 16.6543L20.8625 16.327L20.8335 16.331L16.4542 16.2027L14.197 16.1362L14.1681 16.1402L12.852 16.102L12.0411 16.0791L11.5475 16.0639L11.2398 16.0548L11.8274 16.0151L90.8568 10.7389C91.5694 11.4603 92.4551 11.9783 93.4244 12.2404L93.3881 12.2387Z" fill="#E9E343"/>
<path d="M93.3881 12.2387L94.3892 19.4568L92.5288 19.3804L92.4546 19.3773L91.4084 19.3352L90.8396 15.234C90.8328 15.1836 90.8163 15.1351 90.7911 15.0911C90.766 15.0472 90.7325 15.0086 90.6928 14.9778C90.653 14.947 90.6078 14.9244 90.5595 14.9114C90.5113 14.8984 90.4611 14.8952 90.4117 14.9021L85.2677 15.6155C85.1679 15.6294 85.0779 15.6831 85.0173 15.7649C84.9567 15.8466 84.9307 15.9498 84.9448 16.0516L85.3662 19.0897L32.7373 16.9723L32.6927 16.9701L21.281 16.5097L21.2537 16.5135L16.5874 16.3247L16.5665 16.3276L14.1542 16.2291L14.1397 16.2311L12.7195 16.1739L12.7018 16.1764L11.8105 16.1412L11.2535 16.1181L10.9059 16.1044L11.5222 16.0708L12.2505 16.03L91.9871 11.6589C92.4271 11.9146 92.8982 12.1096 93.3881 12.2387Z" fill="#E9E343"/>
<path d="M93.4311 12.5488L94.5257 20.4411L92.765 20.3509L91.5406 20.2883L90.8402 15.2389C90.8335 15.1886 90.817 15.14 90.7918 15.096C90.7666 15.0521 90.7332 15.0136 90.6935 14.9827C90.6537 14.9519 90.6084 14.9293 90.5602 14.9163C90.512 14.9033 90.4618 14.9002 90.4124 14.907L85.2684 15.6205C85.1686 15.6343 85.0786 15.688 85.018 15.7698C84.9574 15.8516 84.9313 15.9547 84.9455 16.0565L85.4897 19.9805L33.6961 17.3175L21.7023 16.7004L16.7402 16.4456L14.1224 16.3071L12.5779 16.2287L11.6093 16.1791L10.9871 16.1467L10.5911 16.1264L11.2425 16.0979L12.003 16.0643L12.9442 16.0224L12.9635 16.0197L93.4311 12.5488Z" fill="#E9E343"/>
<path d="M93.5678 13.5347L94.6622 21.4253L92.9915 21.3227L89.8067 21.124L91.2535 20.9233C91.3528 20.9096 91.4425 20.8561 91.5028 20.7747C91.5631 20.6932 91.5891 20.5905 91.575 20.4892L90.8469 15.2397C90.8401 15.1893 90.8237 15.1408 90.7985 15.0968C90.7733 15.0528 90.7399 15.0143 90.7001 14.9835C90.6604 14.9526 90.6151 14.9301 90.5669 14.9171C90.5187 14.9041 90.4684 14.9009 90.4191 14.9078L85.275 15.6212C85.1753 15.6351 85.0852 15.6888 85.0246 15.7705C84.9641 15.8523 84.938 15.9554 84.9521 16.0573L85.6192 20.8671L34.5746 17.6856L22.1661 16.9136L16.8987 16.5841L14.1172 16.4115L12.4642 16.3063L11.418 16.2407L10.737 16.1981L10.2941 16.1709L10.9972 16.1486L11.813 16.1241L12.8309 16.0916L14.17 16.048L14.1909 16.0451L93.5678 13.5347Z" fill="#E9E343"/>
<path d="M16.3186 16.0877L16.309 16.0891L14.1851 16.1328L14.1561 16.1369L12.7204 16.1688L12.7027 16.1712L11.6065 16.1945L10.7241 16.2116L9.9726 16.2272L10.469 16.262L11.2055 16.3154L12.3311 16.3983L14.0971 16.5263L17.0764 16.7434L22.5651 17.1442L35.4048 18.0838L93.2036 22.2965L93.2357 22.292L94.7987 22.4096L93.7046 14.5206L16.3186 16.0877ZM91.566 20.4954C91.5801 20.5968 91.5541 20.6995 91.4938 20.7809C91.4335 20.8623 91.3438 20.9158 91.2445 20.9296L86.1004 21.6431C86.0009 21.6569 85.8999 21.6299 85.8195 21.568C85.7391 21.5062 85.6857 21.4145 85.6712 21.313L84.9432 16.0635C84.929 15.9617 84.9551 15.8586 85.0157 15.7768C85.0762 15.695 85.1663 15.6413 85.2661 15.6275L90.4102 14.914C90.4595 14.9072 90.5097 14.9103 90.5579 14.9233C90.6061 14.9363 90.6514 14.9589 90.6912 14.9897C90.7309 15.0206 90.7644 15.0591 90.7895 15.103C90.8147 15.147 90.8312 15.1956 90.8379 15.2459L91.566 20.4954Z" fill="#E9E343"/>
<path d="M93.8413 15.5065L94.9366 23.4038L93.7049 23.3004L93.6106 23.2934L93.5674 23.2893L93.468 23.2814L93.4487 23.2841L93.4106 23.281L36.2196 18.4891L36.17 18.4859L22.9331 17.3757L17.1959 16.8957L14.091 16.6358L12.1995 16.4768L10.9944 16.3764L10.1971 16.3098L9.6665 16.2646L10.4635 16.2578L11.4076 16.2489L12.5777 16.2387L14.1436 16.2239L14.1581 16.2219L16.4489 16.2001L20.4514 16.1633L20.4691 16.1608L85.5575 15.5787L85.2634 15.6195C85.1636 15.6333 85.0735 15.687 85.013 15.7688C84.9524 15.8506 84.9263 15.9537 84.9404 16.0555L85.6685 21.305C85.683 21.4065 85.7363 21.4982 85.8168 21.56C85.8972 21.6219 85.9982 21.6489 86.0977 21.6351L91.2418 20.9216C91.3411 20.9078 91.4308 20.8544 91.4911 20.7729C91.5514 20.6915 91.5774 20.5888 91.5633 20.4874L90.8762 15.5332L93.8413 15.5065Z" fill="#E9E343"/>
<path d="M93.9781 16.4925L95.0734 24.3897L93.6117 24.258L93.5795 24.2625L36.9493 18.9062L36.922 18.91L36.8882 18.9147L23.3924 17.6397L23.3732 17.6424L23.33 17.6384L23.3091 17.6413L17.3325 17.0774L14.0704 16.7707L12.0784 16.5839L10.775 16.4603L9.9185 16.3802L9.33905 16.3251L10.1766 16.3276L11.1796 16.329L12.4334 16.3323L14.1017 16.335L16.5505 16.3415L16.5714 16.3386L20.8113 16.3475L20.8402 16.3434L30.8376 16.3647L30.873 16.3598L84.9865 16.4822L85.658 21.3232C85.6725 21.4247 85.7258 21.5164 85.8062 21.5782C85.8866 21.6401 85.9876 21.6671 86.0871 21.6533L91.2312 20.9398C91.3305 20.926 91.4202 20.8726 91.4805 20.7911C91.5408 20.7097 91.5668 20.607 91.5527 20.5056L90.9955 16.4881L93.9781 16.4925Z" fill="#E9E343"/>
<path d="M94.1148 17.4784L95.2101 25.3756L93.8035 25.2279L93.7714 25.2324L93.7066 25.2263L92.21 25.0677L92.1887 24.9135C92.1746 24.8121 92.1216 24.7204 92.0415 24.6584C91.9613 24.5965 91.8604 24.5694 91.7611 24.5832L89.9655 24.8323L37.7211 19.3559L37.705 19.3582L23.6996 17.8814L23.6754 17.8847L17.4588 17.2321L14.0563 16.8697L11.9646 16.6498L10.6025 16.5043L9.66816 16.4065L9.04303 16.3411L9.93113 16.3533L10.9875 16.374L12.3188 16.3917L14.103 16.4151L16.7294 16.4504L21.2484 16.5109L21.2757 16.5071L31.7385 16.646L31.8025 16.6472L85.1144 17.3573L85.663 21.3125C85.6775 21.4139 85.7308 21.5056 85.8112 21.5675C85.8917 21.6294 85.9927 21.6563 86.0922 21.6425L91.2362 20.9291C91.3356 20.9153 91.4253 20.8618 91.4856 20.7804C91.5459 20.699 91.5718 20.5963 91.5578 20.4949L91.1341 17.4403L91.6627 17.4473L91.6836 17.4444L94.1148 17.4784Z" fill="#E9E343"/>
<path d="M94.2527 18.4725L95.348 26.3697L93.9956 26.1995L93.9474 26.1945L92.339 26.0096L92.1852 24.9006C92.1712 24.7992 92.1182 24.7075 92.038 24.6455C91.9578 24.5836 91.857 24.5565 91.7576 24.5703L86.6136 25.2838C86.5645 25.2903 86.5172 25.3065 86.4744 25.3315L38.4187 19.7909L38.4107 19.792L24.0645 18.1501L24.0501 18.1521L17.6312 17.4122L17.6071 17.4155L14.0604 17.0062L14.0412 17.0089L11.8515 16.7558L10.4128 16.5892L9.43709 16.477L8.75043 16.4051L9.68419 16.4277L10.8037 16.4547L12.1995 16.4768L14.0916 16.522L16.8865 16.5908L21.6968 16.7078L32.6934 16.9751L32.738 16.9772L85.2435 18.2523L85.669 21.32C85.6835 21.4215 85.7368 21.5132 85.8172 21.575C85.8976 21.6369 85.9986 21.6639 86.0981 21.6501L91.2422 20.9366C91.3415 20.9228 91.4312 20.8693 91.4915 20.7879C91.5518 20.7065 91.5778 20.6038 91.5637 20.5024L91.2711 18.3928L92.2681 18.4217L92.3355 18.4241L94.2527 18.4725Z" fill="#E9E343"/>
<path d="M94.3892 19.4568L95.4836 27.3474L94.1746 27.1829L92.4641 26.9703L92.1778 24.9066C92.1638 24.8053 92.1108 24.7135 92.0306 24.6516C91.9505 24.5896 91.8496 24.5626 91.7503 24.5764L86.6062 25.2898C86.5572 25.2964 86.5099 25.3126 86.467 25.3376C86.4446 25.3508 86.4237 25.3666 86.4047 25.3846C86.3595 25.427 86.3253 25.48 86.3049 25.539C86.2845 25.5981 86.2787 25.6615 86.2879 25.7236L86.3541 26.2009L39.1386 20.2796L39.1049 20.2843L39.0599 20.2788L24.3562 18.434L24.3449 18.4356L24.3289 18.4378L17.7024 17.6063L13.9923 17.1411L11.6961 16.8526L11.6865 16.8539L10.1858 16.6658L9.15367 16.5364L8.4248 16.4318L9.41207 16.4621L10.5927 16.504L12.0747 16.5576L14.0735 16.6282L17.0372 16.7321L22.1314 16.9117L33.6683 17.318L85.3443 19.1329L85.6467 21.3131C85.6612 21.4145 85.7145 21.5062 85.7949 21.5681C85.8753 21.6299 85.9764 21.6569 86.0758 21.6431L91.2199 20.9297C91.3192 20.9159 91.4089 20.8624 91.4692 20.781C91.5295 20.6996 91.5555 20.5969 91.5414 20.4955L91.3822 19.3472L92.4277 19.3844L92.5019 19.3875L94.3892 19.4568Z" fill="#E9E343"/>
<path d="M94.5258 20.4411L95.6211 28.3383L94.3552 28.1661L94.2751 28.1554L94.2251 28.149L92.6087 27.9301L92.19 24.9116C92.176 24.8103 92.123 24.7185 92.0429 24.6566C91.9627 24.5946 91.8618 24.5676 91.7625 24.5814L86.6184 25.2948C86.5694 25.3014 86.5221 25.3176 86.4792 25.3426C86.4568 25.3558 86.4359 25.3716 86.4169 25.3896C86.3717 25.432 86.3375 25.485 86.3171 25.5441C86.2967 25.6031 86.2909 25.6665 86.3001 25.7286L86.4899 27.0967L39.7444 20.7607L39.7128 20.7567L39.7015 20.7583L39.6822 20.761L24.7338 18.7345L24.7193 18.7365L17.8613 17.8066L17.8468 17.8086L17.8355 17.8102L13.9945 17.2862L13.98 17.2882L11.6037 16.9657L11.5941 16.9671L10.006 16.7509L9.99311 16.7527L8.91942 16.6074L8.15796 16.504L9.18193 16.5509L10.4367 16.6076L12.0032 16.6796L14.1156 16.7778L17.2337 16.9206L22.5844 17.1649L34.5985 17.7157L85.489 20.0224L85.6681 21.3135C85.6826 21.4149 85.7359 21.5066 85.8163 21.5685C85.8967 21.6303 85.9978 21.6573 86.0972 21.6435L91.2413 20.93C91.3407 20.9163 91.4303 20.8628 91.4906 20.7814C91.5509 20.6999 91.5769 20.5972 91.5628 20.4959L91.5358 20.3007L92.7593 20.3567L94.5258 20.4411Z" fill="#E9E343"/>
<path d="M94.6622 21.4253L95.7575 29.3226L94.6061 29.1479L94.531 29.1382L93.6045 29.0025L92.7294 28.8831L92.1779 24.9066C92.1638 24.8053 92.1108 24.7135 92.0307 24.6516C91.9505 24.5896 91.8496 24.5626 91.7503 24.5764L86.6062 25.2898C86.5572 25.2964 86.5099 25.3126 86.467 25.3376C86.4446 25.3508 86.4237 25.3666 86.4047 25.3846C86.3595 25.427 86.3253 25.48 86.3049 25.539C86.2845 25.5981 86.2787 25.6615 86.2879 25.7236L86.6014 27.9841L40.4769 21.2694L40.464 21.2712L40.4273 21.2663L25.0796 19.0309L25.0716 19.032L25.0399 19.0281L18.0073 17.9971L17.996 17.9986L17.9831 18.0004L17.9606 18.0035L17.9494 18.0051L17.9381 18.0066L13.9261 17.4077L13.9132 17.4095L13.8987 17.4115L11.4321 17.0514L9.77992 16.8107L9.76707 16.8125L8.63325 16.647L8.61879 16.649L7.81439 16.5315L8.88452 16.5921L10.1792 16.665L11.8405 16.759L14.0599 16.8842L17.3428 17.0693L22.9361 17.3853L35.3892 18.0893L85.6143 20.9263L85.6701 21.3282C85.6846 21.4297 85.7379 21.5214 85.8183 21.5832C85.8988 21.6451 85.9998 21.6721 86.0993 21.6583L89.713 21.1571L92.9915 21.3227L94.6622 21.4253Z" fill="#E9E343"/>
<path d="M94.7987 22.4096L95.8941 30.3068L94.7024 30.1143L92.8604 29.828L92.1778 24.9066C92.1638 24.8053 92.1108 24.7135 92.0306 24.6516C91.9505 24.5896 91.8496 24.5626 91.7503 24.5764L86.6062 25.2898C86.5572 25.2964 86.5099 25.3126 86.467 25.3376C86.4446 25.3508 86.4237 25.3666 86.4047 25.3846C86.3595 25.427 86.3253 25.48 86.3049 25.539C86.2845 25.5981 86.2787 25.6615 86.2879 25.7236L86.7256 28.8798L41.0668 21.7778L25.4096 19.343L18.0584 18.2006L13.9089 17.5556L11.3096 17.1486L9.57432 16.8877L8.36684 16.699L7.77341 16.6141C7.77061 16.605 7.76611 16.5966 7.76013 16.5892L8.61741 16.6392L8.63026 16.6374L9.95314 16.7248L9.96601 16.723L11.6727 16.8374L11.6824 16.8361L14.0244 16.9945L14.0437 16.9918L17.4521 17.2196L23.3001 17.6124L23.321 17.6095L23.3642 17.6136L23.3835 17.6109L36.1574 18.4659L36.207 18.4691L93.2036 22.2965L93.2357 22.292L94.7987 22.4096Z" fill="#E9E343"/>
<path d="M94.9353 23.3939L96.0306 31.2911L94.8752 31.1002L92.1754 30.6537L92.5885 30.5964C92.6879 30.5827 92.7776 30.5292 92.8379 30.4477C92.8982 30.3663 92.9241 30.2636 92.9101 30.1622L92.182 24.9128C92.1679 24.8114 92.115 24.7196 92.0348 24.6577C91.9546 24.5958 91.8538 24.5687 91.7544 24.5825L86.6104 25.2959C86.5613 25.3025 86.5141 25.3187 86.4712 25.3437C86.4487 25.3569 86.4278 25.3727 86.4089 25.3908C86.3637 25.4331 86.3294 25.4861 86.3091 25.5452C86.2887 25.6042 86.2828 25.6676 86.292 25.7297L86.8533 29.7767L41.6803 22.303L25.7346 19.6658L18.2037 18.4213L13.8842 17.7078L11.1758 17.2592L9.3582 16.9595L8.09885 16.7513L7.82383 16.7058C7.82088 16.6845 7.80368 16.6668 7.79291 16.6482L8.36091 16.6915L9.76549 16.801L9.77834 16.7992L11.5588 16.9368L11.5684 16.9355L13.9832 17.1223L17.5954 17.4021L17.6195 17.3987L23.678 17.8677L23.7021 17.8643L36.888 18.8779L36.9218 18.8732L36.9491 18.8694L93.404 23.2451L93.4421 23.2482L93.4614 23.2455L93.5608 23.2535L93.604 23.2575L93.6983 23.2645L94.9353 23.3939Z" fill="#E9E343"/>
<path d="M95.0718 24.3782L96.1671 32.2754L95.0421 32.0786L89.2286 31.0608L92.5883 30.5948C92.6876 30.581 92.7773 30.5275 92.8376 30.4461C92.8979 30.3647 92.9239 30.262 92.9098 30.1606L92.1818 24.9111C92.1677 24.8097 92.1147 24.718 92.0346 24.6561C91.9544 24.5941 91.8535 24.5671 91.7542 24.5808L86.6101 25.2943C86.5611 25.3008 86.5138 25.317 86.4709 25.342C86.4485 25.3553 86.4276 25.3711 86.4086 25.3891C86.3634 25.4314 86.3292 25.4845 86.3088 25.5435C86.2884 25.6026 86.2826 25.666 86.2918 25.728L86.9771 30.6691L84.626 30.2562L42.258 22.8415L26.0517 20.003L18.3157 18.6498L13.8791 17.8724L11.0462 17.3758L9.15373 17.0447L7.87923 16.8218C7.86526 16.792 7.84992 16.764 7.83618 16.7359L8.09996 16.7595L9.56973 16.89L11.4323 17.053L13.9451 17.273L13.9595 17.271L17.6932 17.5992L24.0425 18.1565L24.0569 18.1545L37.6974 19.3509L37.7135 19.3486L93.5779 24.251L93.6101 24.2465L95.0718 24.3782Z" fill="#E9E343"/>
<path d="M95.2083 25.3625L96.3036 33.2597L95.2084 33.0538L81.9922 30.6164L42.8596 23.3868L26.3707 20.3416L18.4472 18.8774L13.8684 18.031L10.9436 17.487L8.95435 17.1192L7.93307 16.9264L7.91911 16.8966L7.8772 16.8071L9.35728 16.9529L11.3039 17.1427L13.8983 17.3965L13.9128 17.3945L13.9257 17.3927L17.8076 17.774L17.8188 17.7724L17.8333 17.7704L24.3113 18.4052L24.3273 18.4029L24.3386 18.4014L38.3924 19.7778L38.4004 19.7767L89.8367 24.8133L86.5943 25.263C86.5453 25.2696 86.498 25.2858 86.4551 25.3108C86.4327 25.324 86.4118 25.3398 86.3929 25.3579C86.3477 25.4002 86.3134 25.4532 86.293 25.5123C86.2726 25.5714 86.2668 25.6347 86.276 25.6968L87.0041 30.9463C87.0111 30.9966 87.0277 31.0451 87.0531 31.089C87.0785 31.1328 87.1121 31.1712 87.1519 31.2018C87.1918 31.2325 87.2372 31.2549 87.2855 31.2677C87.3337 31.2804 87.384 31.2834 87.4333 31.2763L92.5773 30.5629C92.6767 30.5491 92.7664 30.4956 92.8267 30.4142C92.887 30.3328 92.9129 30.2301 92.8989 30.1287L92.1935 25.0432L93.6885 25.1904L93.7533 25.1964L93.7854 25.192L95.2083 25.3625Z" fill="#E9E343"/>
<path d="M95.3448 26.3468L96.4401 34.244L95.3725 34.0359L79.5127 30.9553L43.4134 23.942L26.6662 20.6886L18.5367 19.1091L13.8224 18.1963L10.8068 17.6113L8.76087 17.2129L7.98293 17.0616C7.9802 17.0419 7.96645 17.0254 7.95912 17.0081C7.9518 16.9907 7.9376 16.9592 7.92615 16.9357L7.91217 16.9059L9.14476 17.0392L11.1662 17.2605L13.8999 17.5501L17.9186 17.9843L17.9299 17.9827L17.9411 17.9811L17.9636 17.978L17.9765 17.9762L17.9878 17.9747L24.6808 18.695L24.6952 18.693L39.0335 20.2423L39.0785 20.2478L39.1122 20.2431L86.3832 25.3475C86.338 25.3898 86.3037 25.4428 86.2834 25.5019C86.263 25.561 86.2571 25.6243 86.2663 25.6864L86.9944 30.9359C87.0014 30.9862 87.0181 31.0347 87.0434 31.0786C87.0688 31.1224 87.1024 31.1608 87.1423 31.1915C87.1821 31.2221 87.2275 31.2445 87.2758 31.2573C87.3241 31.2701 87.3743 31.273 87.4236 31.266L92.5677 30.5525C92.667 30.5387 92.7567 30.4852 92.817 30.4038C92.8773 30.3224 92.9033 30.2197 92.8892 30.1183L92.322 26.0286L93.9288 26.2021L93.977 26.2071L95.3448 26.3468Z" fill="#E9E343"/>
<path d="M95.4813 27.331L96.5767 35.2282L95.5345 35.015L93.5241 34.6133L93.5187 34.5739C93.5046 34.4725 93.4517 34.3808 93.3715 34.3189C93.2913 34.2569 93.1905 34.2299 93.0911 34.2436L92.2681 34.3578L77.1809 31.2838L43.9396 24.5111L26.9624 21.0521L18.6409 19.3638L13.7899 18.3747L10.6841 17.742L8.56309 17.3105L8.04386 17.2053C8.03999 17.1774 8.02349 17.153 8.01158 17.1262L7.98916 17.0708C7.98643 17.0511 7.97266 17.0346 7.96533 17.0172L8.95296 17.1327L11.0434 17.3795L13.8754 17.7157L18.0513 18.2083L25.0241 19.032L25.0558 19.0359L25.0638 19.0348L39.6625 20.7487L39.6818 20.746L39.693 20.7444L39.7247 20.7484L86.3536 26.2562L87.0089 30.9807C87.0159 31.0311 87.0325 31.0795 87.0579 31.1234C87.0832 31.1673 87.1168 31.2056 87.1567 31.2363C87.1966 31.267 87.242 31.2893 87.2902 31.3021C87.3385 31.3149 87.3888 31.3178 87.438 31.3108L92.5821 30.5973C92.6814 30.5835 92.7711 30.5301 92.8314 30.4486C92.8917 30.3672 92.9177 30.2645 92.9036 30.1631L92.4625 26.9823L94.1666 27.184L95.4813 27.331Z" fill="#E9E343"/>
<path d="M95.619 28.3235L96.7143 36.2207L95.7009 36.0018L93.6745 35.5672L93.5364 34.5715C93.5223 34.4701 93.4694 34.3783 93.3892 34.3164C93.309 34.2545 93.2082 34.2274 93.1088 34.2412L89.68 34.7167L74.9915 31.5874L44.456 25.0798L27.2347 21.4089L18.7423 19.5989L13.76 18.5376L10.5522 17.8539L8.35774 17.3892L8.1128 17.3362C8.1078 17.3001 8.08673 17.2663 8.07208 17.2315C8.07049 17.22 8.06889 17.2085 8.05742 17.1967C8.04596 17.185 8.03705 17.1444 8.02515 17.1176L8.78066 17.2135L10.9494 17.4929L13.8835 17.8684L18.207 18.4208L25.4145 19.3423L40.4269 21.263L40.4636 21.2679L40.4765 21.2661L86.4859 27.1508L87.0169 30.9796C87.0239 31.0299 87.0406 31.0784 87.0659 31.1223C87.0913 31.1661 87.1249 31.2045 87.1648 31.2352C87.2046 31.2658 87.25 31.2882 87.2983 31.301C87.3466 31.3138 87.3968 31.3167 87.4461 31.3097L92.5902 30.5962C92.6895 30.5824 92.7792 30.5289 92.8395 30.4475C92.8998 30.3661 92.9258 30.2634 92.9117 30.162L92.6032 27.9376L94.2177 28.1433L94.2678 28.1498L94.3479 28.1604L95.619 28.3235Z" fill="#E9E343"/>
<path d="M95.7558 29.3094L96.8511 37.2066L95.8553 36.9853L93.7897 36.5277L93.5187 34.5739C93.5046 34.4725 93.4517 34.3808 93.3715 34.3189C93.2913 34.2569 93.1905 34.2298 93.0911 34.2436L87.9471 34.9571C87.8866 34.9657 87.829 34.989 87.7793 35.025C87.7296 35.061 87.6891 35.1086 87.6612 35.1639L72.8939 31.88L44.9638 25.6699L27.5084 21.7873L18.8189 19.8558L13.7155 18.7244L10.4069 17.9878L8.15853 17.4887C8.15238 17.4444 8.1288 17.4042 8.11301 17.3613C8.11293 17.3552 8.11209 17.3491 8.11051 17.3432C8.1055 17.3071 8.08441 17.2733 8.06976 17.2385L8.57113 17.3094L10.8211 17.6194L13.8654 18.0331L18.3203 18.6475L25.7383 19.6686L41.0719 21.7788L86.6073 28.0502L87.0137 30.9801C87.0207 31.0304 87.0373 31.0789 87.0627 31.1227C87.0881 31.1666 87.1217 31.205 87.1615 31.2356C87.2014 31.2663 87.2468 31.2887 87.2951 31.3014C87.3434 31.3142 87.3936 31.3172 87.4429 31.3101L92.5869 30.5967C92.6863 30.5829 92.776 30.5294 92.8363 30.448C92.8966 30.3665 92.9225 30.2638 92.9085 30.1625L92.7324 28.8927L93.568 29.0109L94.5218 29.1428L94.5969 29.1525L95.7558 29.3094Z" fill="#E9E343"/>
<path d="M96.0292 31.2813L97.1245 39.1785L94.0572 38.4335L93.5219 34.5735C93.5078 34.4721 93.4549 34.3803 93.3747 34.3184C93.2945 34.2565 93.1936 34.2294 93.0943 34.2432L87.9502 34.9566C87.8897 34.9653 87.8322 34.9886 87.7825 35.0245C87.7327 35.0605 87.6922 35.1082 87.6643 35.1635C87.6531 35.1868 87.6438 35.211 87.6367 35.2359C87.6233 35.2869 87.6201 35.3403 87.6273 35.3927L87.8426 36.9446L69.0277 32.4162L28.1135 22.5712L19.0273 20.3787L13.6475 19.085L10.1512 18.2473L8.25614 17.7912L8.25113 17.7551L8.21455 17.6331C8.21455 17.6331 8.21296 17.6216 8.21205 17.615L8.16907 17.4822L10.5491 17.856L13.8084 18.3671L18.5534 19.1118L26.3789 20.3422L42.2739 22.8377L86.867 29.84L87.0251 30.9801C87.0321 31.0305 87.0488 31.079 87.0741 31.1228C87.0995 31.1667 87.1331 31.205 87.173 31.2357C87.2129 31.2664 87.2582 31.2887 87.3065 31.3015C87.3548 31.3143 87.405 31.3173 87.4543 31.3102L92.1161 30.6636L94.8915 31.0996L96.0292 31.2813Z" fill="#E9E343"/>
<path d="M14.4285 54.0724L8.47351 57.5034L4.15573 26.3722L4.9747 28.5794L4.97583 28.5876L11.3275 45.7127C11.2771 45.7909 11.2564 45.8853 11.2693 45.9783L11.9974 51.2277C12.0105 51.3242 12.0589 51.4123 12.1328 51.4743C12.2067 51.5363 12.3008 51.5677 12.396 51.562L13.4409 51.4171L14.4285 54.0724Z" fill="#E9E343"/>
<path d="M11.5929 45.5471C11.5398 45.5548 11.4889 45.5737 11.4435 45.6028C11.3982 45.6318 11.3593 45.6703 11.3296 45.7157C11.2791 45.7939 11.2584 45.8883 11.2714 45.9813L11.7813 49.6576L4.97951 28.5904L4.97837 28.5822L4.07587 25.7964L9.95402 36.1168C9.92903 36.1786 9.92085 36.2461 9.93034 36.3124L10.6584 41.5619C10.6725 41.6633 10.7254 41.755 10.8056 41.8169C10.8858 41.8789 10.9866 41.9059 11.086 41.8922L13.0874 41.6146L15.0496 45.0593L11.5929 45.5471Z" fill="#E9E343"/>
<path d="M19.5795 53.0186L18.5309 53.7275L14.0709 56.727L13.3998 54.6649L12.4006 51.5714L17.5801 50.8531C17.6798 50.8392 17.7699 50.7855 17.8304 50.7037C17.891 50.622 17.9171 50.5188 17.903 50.417L17.8395 49.9593L19.5795 53.0186Z" fill="#E9E343"/>
<path d="M24.7302 51.9631L23.6175 52.8481L19.6582 55.9605L18.5304 53.7359L17.0985 50.9249L17.5807 50.858C17.6805 50.8441 17.7706 50.7904 17.8311 50.7087C17.8917 50.6269 17.9178 50.5238 17.9036 50.4219L17.1756 45.1724C17.1686 45.1221 17.1519 45.0736 17.1266 45.0298C17.1012 44.9859 17.0676 44.9476 17.0277 44.9169C16.9879 44.8862 16.9425 44.8638 16.8942 44.8511C16.8459 44.8383 16.7957 44.8353 16.7464 44.8424L14.1744 45.1991L12.4051 41.7276L16.2406 41.1956C16.2786 41.19 16.3157 41.1792 16.3508 41.1636L24.7302 51.9631Z" fill="#E9E343"/>
<path d="M29.8827 50.909L25.2496 55.1766L15.5384 41.283L16.236 41.1862C16.274 41.1806 16.3111 41.1698 16.3463 41.1542C16.4193 41.1192 16.4792 41.0613 16.5175 40.9889C16.5558 40.9166 16.5704 40.8335 16.5592 40.7518L16.0247 36.8984L29.8827 50.909Z" fill="#E9E343"/>
<path d="M35.0334 49.8536L30.8406 54.4011L28.7048 51.997L16.1736 37.9244L15.8366 35.4949C15.8296 35.4446 15.813 35.3961 15.7876 35.3522C15.7622 35.3084 15.7286 35.27 15.6888 35.2393C15.6489 35.2087 15.6035 35.1863 15.5552 35.1735C15.5069 35.1607 15.4567 35.1578 15.4074 35.1648L13.9012 35.3737L10.9552 32.0654L13.143 31.762L35.0334 49.8536Z" fill="#E9E343"/>
<path d="M40.1843 48.7997L38.919 50.4265L36.4331 53.6255L33.8022 51.1948L12.7701 31.8137L14.8968 31.5187C14.9841 31.5068 15.0645 31.4643 15.1243 31.3986L40.1843 48.7997Z" fill="#E9E343"/>
<path d="M45.3366 47.744L44.0773 49.686L42.0257 52.8498L38.919 50.4265L14.7152 31.5439L14.8968 31.5187C14.9462 31.5121 14.9937 31.4956 15.0367 31.4702C15.0797 31.4447 15.1172 31.4109 15.1473 31.3705C15.1773 31.3301 15.1992 31.2841 15.2116 31.235C15.2241 31.1859 15.2269 31.1347 15.22 31.0843L15.0268 29.6916L45.3366 47.744Z" fill="#E9E343"/>
<path d="M50.4876 46.6902L49.2758 48.9633L47.6166 52.0744L44.0773 49.686L15.0853 30.1132L14.8172 28.1807L50.4876 46.6902Z" fill="#E9E343"/>
<path d="M55.6383 45.6347L53.2092 51.2987L49.2758 48.9633L14.865 28.5252L14.6359 26.8733L55.6383 45.6347Z" fill="#E9E343"/>
<path d="M60.7908 44.5807L60.6756 44.9311L58.8059 50.5174L14.6768 27.1685L14.4919 25.8348C14.4856 25.7901 14.4719 25.7468 14.4512 25.7067L60.7908 44.5807Z" fill="#E9E343"/>
<path d="M65.9415 43.5252L64.3928 49.7476L14.5089 25.9579L14.491 25.8283C14.4768 25.7265 14.4237 25.6343 14.3431 25.5721C14.2626 25.5099 14.1613 25.4828 14.0616 25.4966L13.6597 25.5523L11.1624 24.3571L7.5288 22.6239C7.61001 22.5006 7.68593 22.3747 7.75635 22.2445L65.9415 43.5252Z" fill="#E9E343"/>
<path d="M71.0924 42.4713L69.9858 48.9752L7.85373 22.0488C7.92209 21.9156 7.98012 21.7788 8.03953 21.6401L71.0924 42.4713Z" fill="#E9E343"/>
<path d="M76.2448 41.4157L75.577 48.1897L8.1151 21.4407C8.16763 21.2997 8.21487 21.156 8.25685 21.0097L76.2448 41.4157Z" fill="#E9E343"/>
<path d="M81.3954 40.3602L81.3334 42.4053L81.1721 47.4203L75.8488 45.4834L8.31104 20.8216C8.34797 20.6744 8.37962 20.5245 8.403 20.3741L11.6618 21.2598L81.3954 40.3602Z" fill="#E9E343"/>
<path d="M86.5464 39.3063L86.5684 40.0557L86.5939 40.9132L86.6179 41.771L86.7614 46.6451L11.665 21.2593L8.42965 20.1765C8.4502 20.0254 8.46348 19.8731 8.46949 19.7195L28.9415 24.8557L86.5464 39.3063Z" fill="#E9E343"/>
<path d="M91.8896 40.5483L91.9009 40.6303L91.9794 41.5507L92.0596 42.4709L92.1381 43.3914L92.3508 45.8699L81.3334 42.4053L11.6919 20.5199L8.47528 19.5014C8.47685 19.3473 8.47361 19.1939 8.46347 19.0382L11.7286 19.7925L15.5693 20.6911L40.4494 26.4231L87.9035 37.3725L88.3586 40.6535C88.3727 40.7553 88.4259 40.8474 88.5064 40.9096C88.5869 40.9718 88.6882 40.999 88.788 40.9851L91.8896 40.5483Z" fill="#E9E343"/>
<path d="M95.8924 30.2954L96.9877 38.1926L93.9222 37.4841L93.5186 34.5739C93.5046 34.4725 93.4516 34.3808 93.3714 34.3189C93.2912 34.2569 93.1904 34.2299 93.091 34.2436L87.947 34.9571C87.8865 34.9657 87.8289 34.989 87.7792 35.025C87.7295 35.061 87.689 35.1086 87.6611 35.164C87.6498 35.1872 87.6406 35.2114 87.6334 35.2363C87.62 35.2874 87.6168 35.3407 87.6241 35.3931L87.7151 36.0493L27.7863 22.1735L8.20212 17.6382C8.20212 17.6382 8.20052 17.6267 8.19961 17.6201L8.15661 17.4873C8.15047 17.443 8.12688 17.4028 8.11109 17.3599L86.728 28.9447L87.0104 30.9805C87.0174 31.0308 87.034 31.0793 87.0594 31.1232C87.0848 31.1671 87.1184 31.2054 87.1582 31.2361C87.1981 31.2667 87.2435 31.2891 87.2918 31.3019C87.3401 31.3147 87.3903 31.3176 87.4396 31.3106L92.5836 30.5971C92.683 30.5833 92.7727 30.5298 92.833 30.4484C92.8933 30.367 92.9192 30.2643 92.9052 30.1629L92.8617 29.8496L94.7017 30.1211L95.8924 30.2954Z" fill="#E9E343"/>
<path d="M96.1659 32.2672L97.2612 40.1644L94.1878 39.3985L93.5186 34.5739C93.5046 34.4725 93.4516 34.3808 93.3714 34.3189C93.2912 34.2569 93.1904 34.2299 93.091 34.2436L87.947 34.9571C87.8865 34.9657 87.8289 34.989 87.7792 35.025C87.7295 35.061 87.689 35.1086 87.6611 35.164C87.6498 35.1872 87.6406 35.2114 87.6334 35.2363C87.62 35.2874 87.6168 35.3407 87.6241 35.3931L87.964 37.844L19.1502 20.6626L13.6169 19.2898L8.29447 17.9614C8.29197 17.9434 8.28947 17.9253 8.28719 17.9089L8.25701 17.7977L8.25201 17.7617L8.21542 17.6397C8.21542 17.6397 8.21383 17.6282 8.21292 17.6216L10.4178 17.9846L86.9898 30.7376L87.0237 30.982C87.0307 31.0323 87.0474 31.0808 87.0727 31.1247C87.0981 31.1685 87.1317 31.2069 87.1716 31.2376C87.2114 31.2682 87.2568 31.2906 87.3051 31.3034C87.3534 31.3162 87.4036 31.3191 87.4529 31.3121L89.0813 31.0862L95.0413 32.0737L96.1659 32.2672Z" fill="#E9E343"/>
<path d="M96.3026 33.2531L97.398 41.1503L93.9598 40.2595C94.0527 40.2386 94.1342 40.1827 94.1882 40.103C94.2421 40.0234 94.2645 39.9257 94.2508 39.8295L93.5227 34.58C93.5087 34.4787 93.4557 34.3869 93.3755 34.325C93.2954 34.263 93.1945 34.236 93.0952 34.2498L87.9511 34.9632C87.8906 34.9718 87.8331 34.9951 87.7833 35.0311C87.7336 35.0671 87.6931 35.1147 87.6652 35.1701C87.654 35.1933 87.6447 35.2176 87.6376 35.2425C87.6241 35.2935 87.6209 35.3468 87.6282 35.3993L88.0928 38.7491L40.4494 26.4231L8.33146 18.1218C8.32827 18.0989 8.32509 18.0759 8.3219 18.0529L8.29837 17.9542C8.29587 17.9361 8.29336 17.9181 8.29109 17.9017L8.26093 17.7905L8.25592 17.7544L95.2084 33.0538L96.3026 33.2531Z" fill="#E9E343"/>
<path d="M96.4394 34.239L97.5347 42.1363L91.9009 40.6303L91.6951 40.5753L93.9584 40.2613C94.0513 40.2405 94.1328 40.1846 94.1868 40.1049C94.2407 40.0252 94.2631 39.9275 94.2495 39.8314L93.5214 34.5819C93.5073 34.4805 93.4544 34.3888 93.3742 34.3268C93.294 34.2649 93.1931 34.2378 93.0938 34.2516L87.9497 34.9651C87.8892 34.9737 87.8317 34.997 87.782 35.033C87.7322 35.069 87.6917 35.1166 87.6638 35.1719C87.6526 35.1952 87.6433 35.2194 87.6362 35.2443C87.6228 35.2954 87.6196 35.3487 87.6268 35.4011L88.215 39.6417L8.3682 18.2923L8.35683 18.2103C8.3525 18.1791 8.34841 18.1496 8.34431 18.12C8.34022 18.0905 8.33794 18.0741 8.33476 18.0511L8.31124 17.9524C8.30874 17.9344 8.30624 17.9163 8.30396 17.8999L13.7 18.8971L18.8466 19.8553L95.3722 34.0343L96.4394 34.239Z" fill="#E9E343"/>
<path d="M87.9438 34.9575C87.8833 34.9662 87.8257 34.9895 87.776 35.0254C87.7263 35.0614 87.6857 35.1091 87.6579 35.1644C87.6466 35.1877 87.6374 35.2119 87.6302 35.2368C87.6168 35.2878 87.6136 35.3412 87.6209 35.3936L88.3353 40.5447L86.5684 40.0557L8.3983 18.462C8.39398 18.4308 8.38943 18.398 8.38488 18.3652C8.38033 18.3324 8.37737 18.3111 8.3735 18.2832L8.36213 18.2012C8.3578 18.17 8.35371 18.1405 8.34961 18.1109C8.34552 18.0814 8.34324 18.065 8.34006 18.042L92.2026 34.3585L87.9438 34.9575Z" fill="#E9E343"/>
<path d="M96.5761 35.225L97.6714 43.1222L89.5345 40.8749L93.9601 40.2611C94.0529 40.2402 94.1345 40.1844 94.1884 40.1047C94.2423 40.025 94.2647 39.9273 94.2511 39.8312L93.53 34.6325L96.5761 35.225Z" fill="#E9E343"/>
<path d="M96.7129 36.2109L97.8082 44.1081L86.5939 40.9132L15.5693 20.6911L8.43043 18.6582L8.42338 18.6073C8.41746 18.5647 8.41132 18.5204 8.4054 18.4777C8.39949 18.4351 8.39653 18.4138 8.39198 18.381C8.38743 18.3481 8.38447 18.3268 8.3806 18.2989L8.36923 18.2169L27.7863 22.1735L89.5003 34.745L87.9442 34.9608C87.8837 34.9695 87.8262 34.9927 87.7765 35.0287C87.7267 35.0647 87.6862 35.1124 87.6583 35.1677C87.6471 35.1909 87.6378 35.2152 87.6307 35.2401C87.6173 35.2911 87.6141 35.3444 87.6213 35.3969L88.3494 40.6464C88.3635 40.7482 88.4167 40.8403 88.4972 40.9025C88.5777 40.9647 88.679 40.9919 88.7788 40.9781L93.9598 40.2595C94.0527 40.2386 94.1342 40.1827 94.1882 40.103C94.2421 40.0234 94.2645 39.9257 94.2508 39.8295L93.6627 35.5889L95.6863 36.0038L96.7129 36.2109Z" fill="#E9E343"/>
<path d="M96.8496 37.1968L97.9449 45.094L92.1381 43.3914L28.9415 24.8557L11.7305 19.8056L8.44696 18.8365C8.43854 18.7758 8.4299 18.7134 8.42148 18.6527L8.41442 18.6019C8.40851 18.5592 8.40236 18.5149 8.39645 18.4723C8.39053 18.4296 8.38758 18.4083 8.38302 18.3755L13.6008 19.481L87.6263 35.2323C87.6129 35.2834 87.6097 35.3367 87.617 35.3891L88.345 40.6386C88.3592 40.7404 88.4123 40.8326 88.4928 40.8948C88.5734 40.957 88.6747 40.9841 88.7744 40.9703L93.9555 40.2517C94.0483 40.2308 94.1299 40.175 94.1838 40.0953C94.2378 40.0156 94.2601 39.9179 94.2465 39.8218L93.7914 36.5408L95.8511 36.9792L96.8496 37.1968Z" fill="#E9E343"/>
<path d="M91.9125 1.60031L89.8714 -13.1163L86.9602 -12.7125L87.4462 -9.2085C87.4602 -9.10713 87.4342 -9.00444 87.3739 -8.92301C87.3136 -8.84159 87.224 -8.7881 87.1246 -8.77433L81.9806 -8.06086C81.9313 -8.05381 81.881 -8.05675 81.8327 -8.06954C81.7845 -8.08232 81.7391 -8.10469 81.6992 -8.13535C81.6593 -8.16602 81.6258 -8.20439 81.6004 -8.24824C81.575 -8.2921 81.5583 -8.34058 81.5514 -8.39092L81.0654 -11.895L10.6141 -2.12363L11.1001 1.38041C11.1071 1.43074 11.1043 1.48193 11.0918 1.53103C11.0793 1.58014 11.0575 1.6262 11.0274 1.66656C10.9974 1.70692 10.9598 1.74079 10.9169 1.76624C10.8739 1.79168 10.8263 1.80818 10.777 1.81481L5.63292 2.52827C5.53358 2.54205 5.43272 2.51499 5.35254 2.45305C5.27235 2.39111 5.21942 2.29936 5.20536 2.19799L4.71936 -1.30605L0.406368 -0.707851L2.38835 13.5823C3.46674 13.5119 4.54421 13.7558 5.495 14.2857C6.44578 14.8155 7.23067 15.6093 7.75804 16.5745C7.76402 16.5818 7.76852 16.5903 7.77131 16.5994C7.78165 16.6145 7.79047 16.6307 7.79766 16.6476C7.80039 16.6673 7.8192 16.6847 7.82858 16.7051C7.83797 16.7256 7.83064 16.7199 7.83981 16.727C7.84899 16.7341 7.86889 16.7832 7.88286 16.813L7.93873 16.9323C7.95018 16.9558 7.96164 16.9793 7.97171 17.0046C7.98178 17.03 7.98796 17.0392 7.99551 17.0582L8.01794 17.1136C8.02181 17.1415 8.03992 17.1657 8.05021 17.1927C8.06051 17.2197 8.05364 17.2173 8.06487 17.2275C8.07952 17.2622 8.09257 17.2972 8.10562 17.3322C8.1072 17.3381 8.10805 17.3441 8.10812 17.3502C8.12391 17.3932 8.13946 17.4345 8.15364 17.4777L8.19664 17.6105C8.19664 17.6105 8.19846 17.6236 8.19914 17.6285L8.23572 17.7505L8.24073 17.7866L8.27089 17.8978C8.27316 17.9142 8.27567 17.9323 8.27817 17.9503L8.3017 18.049C8.30489 18.072 8.30807 18.095 8.31126 18.1179C8.31445 18.1409 8.31945 18.177 8.32377 18.2082L8.33515 18.2902C8.33902 18.3181 8.34289 18.346 8.34653 18.3722C8.35017 18.3985 8.35563 18.4378 8.35995 18.469C8.36427 18.5002 8.37201 18.5559 8.37793 18.5986L8.38498 18.6494C8.3934 18.7101 8.40204 18.7725 8.41046 18.8332C8.41888 18.8939 8.42981 18.9726 8.42811 19.0431C8.43825 19.1988 8.44149 19.3522 8.43991 19.5063C8.43776 19.5734 8.43584 19.6423 8.43208 19.7097C8.425 19.8634 8.41172 20.0157 8.39224 20.1666C8.38343 20.2331 8.37463 20.2995 8.3626 20.3664C8.33922 20.5168 8.30757 20.6666 8.27064 20.8139C8.25678 20.8793 8.23811 20.9454 8.22103 21.0114C8.17906 21.1576 8.13181 21.3013 8.07928 21.4423C8.05578 21.5091 8.03044 21.5745 8.00326 21.6385C7.94706 21.7767 7.87778 21.915 7.81746 22.0471C7.78569 22.1134 7.75069 22.1801 7.71365 22.2438C7.64322 22.3739 7.5673 22.4998 7.48609 22.6231C7.44307 22.691 7.39799 22.7557 7.34969 22.821C7.26596 22.9379 7.17856 23.052 7.08566 23.1619C7.03154 23.2285 6.97484 23.2921 6.91552 23.3527C6.82171 23.456 6.72561 23.5546 6.62883 23.6483C6.56239 23.7126 6.4925 23.7758 6.42217 23.8358C6.32402 23.9196 6.22219 24.0006 6.11831 24.0786C6.03833 24.1398 5.9547 24.1982 5.87059 24.2534C5.78648 24.3085 5.67664 24.3789 5.5682 24.4358C5.45975 24.4926 5.3814 24.5419 5.2849 24.5904C5.18841 24.6389 5.11626 24.674 5.02965 24.7111C4.94304 24.7482 4.82381 24.7982 4.71952 24.8377L4.53345 24.902C4.43008 24.9364 4.32649 24.9691 4.219 24.9974L4.13357 25.0193L3.93192 25.0657L6.15918 41.1242L10.4721 40.526L9.88741 36.31C9.87791 36.2437 9.8861 36.1762 9.91108 36.1144C9.9352 36.0517 9.97513 35.9967 10.0269 35.9549C10.0786 35.9131 10.1403 35.8859 10.2057 35.8763L15.3498 35.1628C15.3991 35.1557 15.4493 35.1587 15.4976 35.1715C15.5459 35.1843 15.5913 35.2066 15.6311 35.2373C15.671 35.268 15.7046 35.3063 15.73 35.3502C15.7553 35.394 15.772 35.4425 15.779 35.4929L16.3637 39.7089L86.8117 29.938L86.227 25.722C86.2178 25.6599 86.2236 25.5965 86.244 25.5375C86.2644 25.4784 86.2986 25.4254 86.3438 25.3831C86.3628 25.365 86.3837 25.3492 86.4061 25.336C86.449 25.311 86.4963 25.2948 86.5453 25.2882L91.6894 24.5748C91.7887 24.561 91.8896 24.5881 91.9698 24.65C92.0499 24.7119 92.1029 24.8037 92.117 24.9051L92.7017 29.1211L95.6097 28.7177L93.3253 12.2474C92.3561 11.9853 91.4704 11.4674 90.7577 10.7459C90.4814 10.469 90.2337 10.1638 90.0186 9.8352C89.5884 9.176 89.2939 8.43509 89.1531 7.65765C89.0122 6.88021 89.028 6.08255 89.1994 5.31328C89.3708 4.54402 89.6943 3.81928 90.1501 3.18327C90.6059 2.54725 91.1844 2.01329 91.8505 1.61393L91.9125 1.60031ZM6.96752 12.1981C6.86798 12.2114 6.76709 12.184 6.68692 12.1218C6.60674 12.0596 6.55382 11.9677 6.53974 11.8662L5.81165 6.61666C5.79759 6.51529 5.82358 6.41259 5.88388 6.33117C5.94418 6.24974 6.03385 6.19626 6.13318 6.18248L11.2773 5.46902C11.3265 5.46196 11.3768 5.46491 11.4251 5.47769C11.4733 5.49048 11.5187 5.51284 11.5586 5.54351C11.5985 5.57418 11.6321 5.61254 11.6574 5.6564C11.6828 5.70026 11.6995 5.74874 11.7064 5.79907L12.4345 11.0486C12.4486 11.1504 12.4225 11.2535 12.362 11.3353C12.3014 11.4171 12.2114 11.4708 12.1116 11.4846L6.96752 12.1981ZM14.491 25.8283L15.219 31.0778C15.226 31.1281 15.2232 31.1793 15.2107 31.2284C15.1983 31.2775 15.1764 31.3236 15.1463 31.3639C15.1163 31.4043 15.0787 31.4382 15.0358 31.4636C14.9928 31.4891 14.9453 31.5056 14.8959 31.5122L9.75183 32.2256C9.65257 32.239 9.55194 32.2117 9.47186 32.1499C9.39178 32.088 9.33874 31.9965 9.32427 31.8954L8.59619 26.6459C8.58211 26.5443 8.608 26.4415 8.66822 26.3598C8.72844 26.2781 8.81807 26.2243 8.91749 26.2101L14.0616 25.4966C14.1613 25.4828 14.2626 25.5099 14.3431 25.5721C14.4237 25.6343 14.4768 25.7265 14.491 25.8283ZM91.5763 20.4873C91.5904 20.5887 91.5644 20.6914 91.5041 20.7728C91.4438 20.8542 91.3541 20.9077 91.2548 20.9215L86.1107 21.635C86.0112 21.6488 85.9102 21.6218 85.8298 21.5599C85.7493 21.4981 85.6961 21.4064 85.6815 21.3049L84.9535 16.0554C84.9393 15.9536 84.9654 15.8505 85.026 15.7687C85.0865 15.6869 85.1766 15.6332 85.2764 15.6194L90.4204 14.9059C90.4698 14.8991 90.52 14.9022 90.5682 14.9152C90.6164 14.9282 90.6617 14.9508 90.7015 14.9816C90.7412 15.0125 90.7747 15.051 90.7998 15.0949C90.825 15.1389 90.8415 15.1875 90.8482 15.2378L91.5763 20.4873ZM88.7973 0.450648C88.8045 0.500952 88.8019 0.55215 88.7896 0.601312C88.7774 0.650473 88.7557 0.696627 88.7258 0.73712C88.696 0.777614 88.6585 0.811655 88.6156 0.837283C88.5728 0.86291 88.5253 0.879624 88.476 0.886465L83.3319 1.59993C83.2322 1.61377 83.1309 1.58659 83.0504 1.52439C82.9698 1.46218 82.9167 1.37004 82.9025 1.26823L82.1745 -3.98126C82.1675 -4.0316 82.1703 -4.08279 82.1828 -4.13189C82.1953 -4.181 82.2171 -4.22705 82.2471 -4.26742C82.2772 -4.30778 82.3148 -4.34165 82.3577 -4.36709C82.4007 -4.39253 82.4482 -4.40904 82.4976 -4.41566L87.6417 -5.12913C87.741 -5.14291 87.8419 -5.11585 87.922 -5.05391C88.0022 -4.99197 88.0552 -4.90022 88.0692 -4.79885L88.7973 0.450648Z" fill="#E9E343"/>
<path d="M38.5673 31.0682C38.5623 31.0321 38.5462 30.9992 38.5334 30.9658C38.4339 30.672 38.285 30.3979 38.0934 30.1557C38.0289 30.0753 37.9577 30.0007 37.8806 29.9328C37.6968 29.7707 37.4872 29.642 37.2609 29.5522C36.8444 29.4046 36.3981 29.3692 35.9654 29.4493C35.4291 29.5179 34.9189 29.7226 34.4816 30.0447C34.0525 30.3617 33.7158 30.7914 33.5072 31.2884L32.9284 27.1151L30.9706 30.2943L32.0627 38.1685L34.4162 37.8421L33.7902 33.3292C33.8286 33.115 33.9013 32.9089 34.0055 32.7191C34.104 32.5375 34.2243 32.3692 34.3636 32.218C34.4887 32.0798 34.6336 31.9616 34.7934 31.8675C34.9275 31.7862 35.0756 31.7316 35.2299 31.7066C35.381 31.6787 35.5367 31.6866 35.6848 31.7299C35.8328 31.7731 35.9693 31.8505 36.0837 31.956C36.3146 32.1681 36.4632 32.5304 36.5339 33.0406L37.1482 37.4698L39.5017 37.1434L38.802 32.099C38.7524 31.7494 38.6739 31.4046 38.5673 31.0682Z" fill="#0A0C0C"/>
<path d="M39.9663 29.0466L41.0584 36.9208L43.4102 36.5946L42.3181 28.7204L39.9663 29.0466ZM41.7709 25.6612L39.8414 28.146L42.1932 27.8198L41.9224 25.8676L41.7709 25.6612Z" fill="#0A0C0C"/>
<path d="M50.1093 35.8227C49.5783 35.9102 49.0334 35.8543 48.5286 35.6607C48.0686 35.4756 47.6706 35.1585 47.3829 34.7478L48.0032 39.2197L45.6497 39.5461L44.1137 28.4714L46.1569 28.188L46.3341 29.4659C46.541 28.9953 46.8573 28.5836 47.2557 28.2663C47.6854 27.9424 48.1922 27.7406 48.7245 27.6814C49.2187 27.6071 49.7236 27.6467 50.2021 27.7975C50.6595 27.9444 51.0831 28.1849 51.447 28.5043C51.8255 28.8377 52.1402 29.2397 52.375 29.6898C52.6308 30.1762 52.7985 30.7052 52.8701 31.2513C52.9533 31.8077 52.9454 32.3738 52.8469 32.9266C52.7607 33.4193 52.5875 33.8914 52.3356 34.3201C52.097 34.7216 51.7766 35.0659 51.3959 35.3299C51.0113 35.5947 50.5706 35.7635 50.1093 35.8227ZM49.0245 33.9082C49.2683 33.877 49.5004 33.7845 49.6999 33.6389C49.8947 33.4945 50.0603 33.3132 50.1878 33.1048C50.3204 32.885 50.4111 32.6416 50.4553 32.3872C50.5021 32.1167 50.5063 31.8401 50.4678 31.5678C50.4322 31.2932 50.3476 31.0272 50.2181 30.7832C50.0976 30.5604 49.9378 30.362 49.747 30.1981C49.5572 30.0399 49.3367 29.9246 49.1004 29.8597C48.8513 29.7918 48.5916 29.7761 48.337 29.8134C48.0048 29.8621 47.6943 30.0086 47.4435 30.235C47.1741 30.4675 46.9751 30.7733 46.8695 31.1172L47.0943 32.738C47.2983 33.1088 47.5914 33.4209 47.9459 33.6448C48.2634 33.8619 48.6463 33.9554 49.0245 33.9082Z" fill="#0A0C0C"/>
<path d="M58.7278 32.1042C58.5832 32.2039 58.431 32.2915 58.2726 32.3663C58.1049 32.4481 57.9259 32.5034 57.7416 32.5303C57.6482 32.5516 57.5511 32.551 57.4577 32.5287C57.3642 32.5064 57.2768 32.4629 57.202 32.4014C57.1271 32.3399 57.0668 32.2621 57.0254 32.1737C56.984 32.0853 56.9628 31.9886 56.9631 31.8909L56.5081 28.6099L58.0818 28.3916L57.829 26.5691L56.2553 26.7874L55.8596 23.9346L53.1699 29.0662L54.1554 28.9295L54.7255 33.0406C54.7598 33.3781 54.861 33.7053 55.0228 34.0025C55.1588 34.2423 55.3494 34.4453 55.5784 34.5943C55.8022 34.7341 56.052 34.8247 56.3116 34.8604C56.5929 34.8984 56.8777 34.8972 57.1582 34.8567C57.5839 34.7976 57.9992 34.6781 58.3919 34.5017C58.7546 34.3433 59.107 34.1615 59.4469 33.9574L58.7278 32.1042Z" fill="#0A0C0C"/>
<path d="M62.6302 34.0861C62.2673 34.1399 61.8975 34.1266 61.5385 34.0469C61.2089 33.9752 60.8966 33.8366 60.6201 33.6392C60.3539 33.4457 60.1265 33.2019 59.9504 32.9212C59.7681 32.6265 59.6506 32.2954 59.606 31.9507C59.5499 31.5816 59.5826 31.2047 59.7011 30.8523C59.8221 30.5078 60.0166 30.1954 60.2705 29.9373C60.552 29.653 60.8803 29.4213 61.2406 29.2527C61.655 29.0572 62.0971 28.9288 62.5509 28.872C62.8665 28.8269 63.1856 28.8106 63.5043 28.8234C63.7851 28.8314 64.0637 28.8777 64.3328 28.9609L64.2827 28.6C64.1565 27.6901 63.5785 27.3066 62.5486 27.4494C62.1369 27.5044 61.7387 27.635 61.3732 27.8348C60.9709 28.0634 60.5968 28.3398 60.2586 28.6582L59.3594 27.2547C59.8041 26.8549 60.3032 26.5228 60.8414 26.2683C61.3854 26.0168 61.9635 25.8493 62.5567 25.7713C63.7227 25.6095 64.6634 25.7644 65.3787 26.2359C66.094 26.7074 66.5293 27.4831 66.6845 28.5629L66.9655 30.5888C66.9735 30.7665 67.0361 30.9374 67.1446 31.0773C67.2027 31.124 67.2693 31.1586 67.3405 31.1788C67.4116 31.1991 67.486 31.2047 67.5592 31.1954L67.8401 33.2213C67.6625 33.2926 67.48 33.3509 67.2941 33.3957C67.1354 33.4328 66.9758 33.4633 66.8408 33.482C66.4919 33.5551 66.1286 33.5117 65.8045 33.3582C65.5497 33.2066 65.3605 32.962 65.2755 32.6742L65.182 32.3193C64.9158 32.8011 64.5449 33.2139 64.0976 33.5264C63.6586 33.8274 63.1561 34.019 62.6302 34.0861ZM63.0821 32.2644C63.3356 32.23 63.5808 32.1495 63.8061 32.0269C64.0158 31.9181 64.2016 31.7672 64.3524 31.5833C64.4397 31.5085 64.5086 31.4139 64.5535 31.3069C64.5984 31.1999 64.6181 31.0836 64.6111 30.9672L64.5069 30.2159C64.2784 30.1633 64.0459 30.1318 63.8122 30.1216C63.5852 30.1096 63.3578 30.1182 63.1325 30.1473C62.7532 30.1841 62.3951 30.3407 62.1084 30.5954C61.9909 30.696 61.9008 30.8258 61.8465 30.9723C61.7923 31.1188 61.7758 31.2772 61.7985 31.4325C61.814 31.5691 61.8599 31.7005 61.9328 31.8164C62.0057 31.9324 62.1036 32.0299 62.219 32.1016C62.4784 32.2607 62.7851 32.3185 63.0821 32.2644Z" fill="#0A0C0C"/>
<path d="M72.7335 32.6848C72.1338 32.7794 71.521 32.7507 70.931 32.6004C70.4132 32.4655 69.9278 32.2232 69.5051 31.8886C69.0991 31.5616 68.7634 31.1527 68.5193 30.6877C68.0181 29.7352 67.8653 28.6336 68.0884 27.5806C68.1967 27.0667 68.4084 26.5819 68.7101 26.1568C69.027 25.7191 69.4274 25.3514 69.8873 25.0756C70.4122 24.7654 70.9942 24.568 71.5977 24.4956C72.1955 24.401 72.8067 24.4329 73.3933 24.5893C73.9081 24.7313 74.3906 24.9764 74.8123 25.3104C75.2166 25.6393 75.5519 26.0478 75.7981 26.5113C76.0521 26.9817 76.2194 27.4952 76.2917 28.0263C76.3672 28.5563 76.3481 29.0954 76.2354 29.6175C76.1267 30.1312 75.915 30.6159 75.6137 31.0413C75.2976 31.4779 74.8965 31.8431 74.4354 32.1143C73.9114 32.4177 73.3329 32.6116 72.7335 32.6848ZM70.441 28.8428C70.4893 29.388 70.7351 29.8963 71.1303 30.2687C71.3076 30.4292 71.5176 30.5477 71.7449 30.6153C71.9722 30.683 72.2112 30.6982 72.4445 30.6599C72.6786 30.6302 72.9028 30.5471 73.1006 30.4168C73.2921 30.2876 73.4551 30.1193 73.5792 29.9223C73.711 29.7061 73.8022 29.4667 73.8483 29.2162C73.9013 28.9356 73.9068 28.6476 73.8645 28.3646C73.8165 27.8193 73.5707 27.3108 73.1752 26.9386C73.0007 26.7787 72.7936 26.6604 72.569 26.5923C72.3444 26.5242 72.108 26.5081 71.8771 26.5452C71.6436 26.5748 71.4197 26.6564 71.2211 26.7842C71.0225 26.912 70.8542 27.0829 70.7279 27.2848C70.5955 27.5006 70.5042 27.7402 70.4588 27.9909C70.4053 28.2715 70.3992 28.5596 70.441 28.8428Z" fill="#0A0C0C"/>
<path d="M81.5661 29.1507C81.4551 29.2421 81.3311 29.3156 81.1982 29.3689C81.0755 29.4194 80.9474 29.4551 80.8165 29.4753C80.3171 29.5446 80.0252 29.2791 79.9408 28.6789L78.8408 20.7472L76.9044 24.0689L77.7046 29.8384C77.799 30.5186 78.0523 31.0141 78.4646 31.3248C78.8769 31.6354 79.4216 31.7432 80.0987 31.6482C80.4593 31.5953 80.8135 31.5053 81.1559 31.3795C81.4957 31.262 81.8209 31.1047 82.1248 30.9107L81.5661 29.1507Z" fill="#0A0C0C"/>
<path d="M22.0204 35.5435C21.945 35.0127 21.9667 34.4728 22.0846 33.9511C22.1984 33.4297 22.4178 32.9389 22.7287 32.51C23.0397 32.081 23.4353 31.7235 23.8904 31.4602C24.4172 31.155 24.9991 30.9606 25.6019 30.8884C26.4946 30.7646 27.2715 30.853 27.9325 31.1537C28.5681 31.4336 29.1143 31.8905 29.508 32.4718L27.3119 33.4953C27.1442 33.2766 26.9212 33.1084 26.6672 33.0089C26.4131 32.9095 26.1376 32.8826 25.8705 32.9311C25.6379 32.9588 25.4144 33.038 25.2155 33.1632C25.0166 33.2884 24.8473 33.4566 24.7192 33.656C24.4336 34.1172 24.3314 34.673 24.4335 35.2104C24.4698 35.4993 24.5542 35.7799 24.6829 36.0403C24.7959 36.2704 24.9519 36.476 25.1421 36.6454C25.3199 36.8017 25.5275 36.9187 25.7517 36.9889C25.9749 37.0594 26.2103 37.0787 26.4411 37.0454C26.7234 37.0083 26.9905 36.8951 27.2149 36.7174C27.4273 36.5542 27.5893 36.3322 27.6815 36.0775L30.0756 36.4812C29.8641 37.1489 29.4626 37.7364 28.922 38.1694C28.29 38.6731 27.5312 38.9851 26.7318 39.0701C26.1358 39.1632 25.5267 39.1305 24.9423 38.9738C24.4228 38.8339 23.9353 38.5893 23.5089 38.2547C23.0989 37.929 22.7589 37.5207 22.5103 37.0556C22.2572 36.5861 22.0911 36.0735 22.0204 35.5435Z" fill="#0A0C0C"/>
<path d="M9.94101 18.1377L8.9765 18.2715L9.04476 18.7636L10.0093 18.6298L9.94101 18.1377Z" fill="#1D1D1B"/>
<path d="M85.8232 8.11471L83.9279 8.37757L83.8597 7.88543L85.755 7.62257L85.8232 8.11471ZM82.0327 8.64044L80.1374 8.90331L80.0692 8.41117L81.9644 8.1483L82.0327 8.64044ZM78.2421 9.16617L76.3469 9.42904L76.2786 8.9369L78.1739 8.67403L78.2421 9.16617ZM74.4516 9.69191L72.5563 9.95477L72.4881 9.46263L74.3833 9.19977L74.4516 9.69191ZM70.6611 10.2176L68.7658 10.4805L68.6975 9.98837L70.5928 9.7255L70.6611 10.2176ZM66.8705 10.7434L64.9753 11.0062L64.907 10.5141L66.8023 10.2512L66.8705 10.7434ZM63.08 11.2691L61.1847 11.532L61.1165 11.0398L63.0198 10.7759L63.08 11.2691ZM59.2895 11.7948L57.3942 12.0577L57.3259 11.5656L59.2212 11.3027L59.2895 11.7948ZM55.4989 12.3206L53.6036 12.5834L53.5354 12.0913L55.4323 11.8282L55.4989 12.3206ZM51.7068 12.8465L49.8115 13.1094L49.7433 12.6173L51.6385 12.3544L51.7068 12.8465ZM47.9162 13.3723L46.021 13.6351L45.9527 13.143L47.848 12.8801L47.9162 13.3723ZM44.1257 13.898L42.2304 14.1609L42.1622 13.6687L44.051 13.4067L44.1257 13.898ZM40.3352 14.4237L38.4399 14.6866L38.3716 14.1945L40.2669 13.9316L40.3352 14.4237ZM36.5446 14.9495L34.6494 15.2123L34.5811 14.7202L36.4764 14.4573L36.5446 14.9495ZM32.7541 15.4752L30.8588 15.7381L30.7906 15.2459L32.6858 14.9831L32.7541 15.4752ZM28.9636 16.0009L27.0683 16.2638L27 15.7717L28.8953 15.5088L28.9636 16.0009ZM25.173 16.5267L23.2778 16.7895L23.2095 16.2974L25.1048 16.0345L25.173 16.5267ZM21.3825 17.0524L19.4872 17.3153L19.419 16.8231L21.3142 16.5603L21.3825 17.0524ZM17.592 17.5781L15.6967 17.841L15.6284 17.3489L17.5269 17.0855L17.592 17.5781ZM13.8014 18.1039L11.9061 18.3667L11.8379 17.8746L13.7332 17.6117L13.8014 18.1039Z" fill="#1D1D1B"/>
<path d="M88.6148 7.22593L87.6503 7.3597L87.7185 7.85184L88.683 7.71807L88.6148 7.22593Z" fill="#1D1D1B"/>
</g>
<defs>
<clipPath id="clip0_63_182">
<rect width="90.3279" height="58.7675" fill="white" transform="translate(0.400024 -0.70697) rotate(-7.89634)"/>
</clipPath>
</defs>
</svg>
