<svg width="367" height="83" viewBox="0 0 367 83" fill="none" xmlns="http://www.w3.org/2000/svg">
<g filter="url(#filter0_d_126_1086)">
<path d="M28.084 31.1774L50.5564 46.1573C51.181 46.5736 51.4933 46.7818 51.8482 46.864C52.2032 46.9462 52.5643 46.898 53.2867 46.8015C63.7137 45.4086 127.852 37.1579 184.084 37.1579C240.34 37.1579 304.509 45.4157 314.894 46.8033C315.61 46.8989 315.968 46.9467 316.32 46.8661C316.673 46.7855 316.984 46.5807 317.605 46.1711L339.374 31.8315C342.617 29.6955 344.238 28.6276 343.988 27.3165C343.737 26.0055 341.862 25.6152 338.111 24.8345C316.721 20.3831 258.482 9.9473 182.592 9.94729C113.759 9.94729 52.1922 19.9322 29.4681 24.1051C25.5537 24.8239 23.5966 25.1833 23.3246 26.5034C23.0526 27.8235 24.7298 28.9415 28.084 31.1774Z" fill="#6776DE"/>
<path d="M51.9611 46.3769L51.8482 46.864L51.961 46.3769C51.7155 46.32 51.4893 46.1783 50.8338 45.7413L28.3614 30.7613C26.6699 29.6338 25.4498 28.819 24.6789 28.1253C23.8973 27.4219 23.7362 26.9834 23.8143 26.6043C23.8929 26.223 24.211 25.8859 25.1916 25.5521C26.1607 25.2221 27.584 24.9594 29.5584 24.5969C52.2683 20.4266 113.802 10.4473 182.592 10.4473C258.438 10.4473 316.642 20.8774 338.009 25.324C339.902 25.718 341.263 26.0027 342.188 26.3455C343.12 26.6906 343.423 27.0271 343.497 27.4103C343.569 27.7912 343.409 28.2191 342.657 28.8922C341.912 29.5592 340.735 30.3363 339.099 31.414L317.33 45.7536C316.678 46.1835 316.453 46.3229 316.209 46.3787C315.964 46.4346 315.711 46.4079 314.96 46.3077C304.573 44.9198 240.376 36.6579 184.084 36.6579C127.816 36.6579 63.6496 44.9127 53.2205 46.3059C52.463 46.4071 52.207 46.4339 51.9611 46.3769Z" stroke="#1E1F29"/>
</g>
<path d="M21.2254 19.0207L20.5372 22.707C20.2791 24.0893 21.4459 25.3133 22.8308 25.07C37.2657 22.5339 105.023 11.3437 182.101 10.3427C257.571 9.36263 325.971 21.9881 342.76 25.3482C344.383 25.6732 345.672 23.9963 344.972 22.4961L343.157 18.6074C342.887 18.0281 342.379 17.6175 341.751 17.4995C332.695 15.7982 261.921 2.99997 182.101 2.99996C103.124 2.99995 33.0019 15.5294 22.7586 17.4419C21.9526 17.5924 21.3759 18.2147 21.2254 19.0207Z" fill="#6776DE" stroke="#1E1F29"/>
<defs>
<filter id="filter0_d_126_1086" x="0.785223" y="0.942928" width="365.739" height="81.9816" filterUnits="userSpaceOnUse" color-interpolation-filters="sRGB">
<feFlood flood-opacity="0" result="BackgroundImageFix"/>
<feColorMatrix in="SourceAlpha" type="matrix" values="0 0 0 0 0 0 0 0 0 0 0 0 0 0 0 0 0 0 127 0" result="hardAlpha"/>
<feOffset dy="13.5066"/>
<feGaussianBlur stdDeviation="11.2555"/>
<feColorMatrix type="matrix" values="0 0 0 0 0.158889 0 0 0 0 0.1825 0 0 0 0 0.366667 0 0 0 1 0"/>
<feBlend mode="normal" in2="BackgroundImageFix" result="effect1_dropShadow_126_1086"/>
<feBlend mode="normal" in="SourceGraphic" in2="effect1_dropShadow_126_1086" result="shape"/>
</filter>
</defs>
</svg>
