<svg width="25" height="24" viewBox="0 0 25 24" xmlns="http://www.w3.org/2000/svg">
<path fill-rule="evenodd" clip-rule="evenodd" d="M0.957977 6.32812V12.6562H12.9557H24.9533V6.32812V0H12.9557H0.957977V6.32812ZM3.76993 2.10938V2.8125H3.06694H2.36396V2.10938V1.40625H3.06694H3.76993V2.10938ZM23.5474 2.10938V2.8125H22.8444H22.1414V2.10938V1.40625H22.8444H23.5474V2.10938ZM14.1038 4.69908C15.8695 5.58197 17.3142 6.31505 17.3142 6.32812C17.3142 6.35133 10.9162 9.5625 10.87 9.5625C10.8572 9.5625 10.8467 8.10703 10.8467 6.32812C10.8467 4.54922 10.8572 3.09375 10.87 3.09375C10.8829 3.09375 12.3381 3.81614 14.1038 4.69908ZM3.76993 4.92188V5.625H3.06694H2.36396V4.92188V4.21875H3.06694H3.76993V4.92188ZM23.5474 4.92188V5.625H22.8444H22.1414V4.92188V4.21875H22.8444H23.5474V4.92188ZM12.2527 6.32812C12.2527 6.91772 12.27 7.26562 12.2992 7.26562C12.3617 7.26562 14.1742 6.35939 14.1742 6.32812C14.1742 6.29686 12.3617 5.39062 12.2992 5.39062C12.27 5.39062 12.2527 5.73853 12.2527 6.32812ZM3.76993 7.73438V8.4375H3.06694H2.36396V7.73438V7.03125H3.06694H3.76993V7.73438ZM23.5474 7.73438V8.4375H22.8444H22.1414V7.73438V7.03125H22.8444H23.5474V7.73438ZM3.76993 10.5469V11.25H3.06694H2.36396V10.5469V9.84375H3.06694H3.76993V10.5469ZM23.5474 10.5469V11.25H22.8444H22.1414V10.5469V9.84375H22.8444H23.5474V10.5469ZM5.10074 14.2214C4.83032 14.3079 4.51412 14.5371 4.36176 14.757C4.11623 15.1113 4.098 15.2584 4.098 16.8825V18.375H6.58419H9.07042L9.05636 16.793C9.04277 15.2562 9.03926 15.2042 8.93451 14.9766C8.79804 14.68 8.59103 14.4633 8.2925 14.3044L8.05817 14.1797L6.67562 14.1698C5.64049 14.1624 5.24476 14.1754 5.10074 14.2214ZM11.4745 14.2214C11.2041 14.3079 10.8879 14.5371 10.7355 14.757C10.49 15.1113 10.4718 15.2584 10.4718 16.8825V18.375H12.9345H15.3973L15.3833 16.793C15.3697 15.2562 15.3662 15.2042 15.2614 14.9766C15.1249 14.68 14.9179 14.4633 14.6194 14.3044L14.3851 14.1797L13.026 14.1698C12.0099 14.1624 11.6183 14.1754 11.4745 14.2214ZM17.8014 14.2214C17.531 14.3079 17.2148 14.5371 17.0624 14.757C16.8169 15.1113 16.7987 15.2584 16.7987 16.8825V18.375H19.2849H21.7711L21.757 16.793C21.7434 15.2562 21.7399 15.2042 21.6352 14.9766C21.4987 14.68 21.2917 14.4633 20.9932 14.3044L20.7588 14.1797L19.3763 14.1698C18.3412 14.1624 17.9454 14.1754 17.8014 14.2214ZM1.91774 19.8644C1.61415 19.9711 1.40522 20.1219 1.23453 20.3576C0.978505 20.7111 0.957977 20.8708 0.957977 22.5085V24H3.42074H5.88354L5.86948 22.418L5.85547 20.8359L5.72471 20.5696C5.57657 20.2679 5.3495 20.0477 5.0377 19.9034C4.8388 19.8113 4.73434 19.8039 3.48874 19.7932C2.3132 19.783 2.12485 19.7915 1.91774 19.8644ZM8.29151 19.8644C7.98791 19.9711 7.77899 20.1219 7.6083 20.3576C7.35227 20.7111 7.33174 20.8708 7.33174 22.5085V24H9.7945H12.2573L12.2432 22.418L12.2292 20.8359L12.0985 20.5696C11.9503 20.2679 11.7233 20.0477 11.4115 19.9034C11.2126 19.8113 11.1081 19.8039 9.8625 19.7932C8.68697 19.783 8.49861 19.7915 8.29151 19.8644ZM14.6184 19.8644C14.3148 19.9711 14.1059 20.1219 13.9352 20.3576C13.6792 20.7111 13.6586 20.8708 13.6586 22.5085V24H16.1214H18.5842L18.5702 22.418L18.5561 20.8359L18.4254 20.5696C18.2772 20.2679 18.0502 20.0477 17.7384 19.9034C17.5395 19.8113 17.435 19.8039 16.1894 19.7932C15.0139 19.783 14.8255 19.7915 14.6184 19.8644ZM20.9922 19.8644C20.6886 19.9711 20.4797 20.1219 20.309 20.3576C20.0529 20.7111 20.0324 20.8708 20.0324 22.5085V24H22.4952H24.958L24.9439 22.418L24.9299 20.8359L24.7991 20.5696C24.651 20.2679 24.4239 20.0477 24.1121 19.9034C23.9132 19.8113 23.8088 19.8039 22.5632 19.7932C21.3876 19.783 21.1993 19.7915 20.9922 19.8644Z"/>
</svg>
