<svg width="30" height="32" viewBox="0 0 30 32" fill="none" xmlns="http://www.w3.org/2000/svg">
<path d="M15.1931 32C14.4542 31.9958 13.7198 31.8778 13.0133 31.6498C12.2386 31.3995 11.4897 31.0677 10.7781 30.6594C9.80497 30.1325 8.87532 29.5209 7.99886 28.8311C7.20999 28.1804 6.4644 27.4735 5.76732 26.7155C4.8231 25.7211 3.94233 24.704 3.21805 23.7698C2.41698 22.7754 1.72531 21.6888 1.15621 20.5307L1.1081 20.4249V20.4216L1.097 20.3971V20.3915V20.386L1.04096 20.2596L1.03726 20.2512L1.03356 20.2429L0.980693 20.1209L0.97382 20.1054V20.1009L0.934698 20.0096L0.922538 19.9812L0.913551 19.9595L0.906149 19.9422V19.9389L0.865441 19.8415L0.861212 19.8303L0.85011 19.8198L0.802 19.7017L0.79407 19.6822L0.747018 19.5625L0.743846 19.5548L0.740674 19.547L0.696265 19.43L0.690979 19.4161L0.648156 19.3009V19.297L0.64234 19.2814L0.601632 19.17L0.597932 19.1589L0.593174 19.1461C0.580485 19.1105 0.568326 19.0748 0.555638 19.0381V19.0309L0.548236 19.0092C0.533962 18.968 0.52286 18.934 0.512815 18.9039V18.8972L0.504885 18.8722L0.463648 18.762L0.453603 18.7297L0.421354 18.6272L0.416067 18.6111L0.411838 18.5949C0.400207 18.5571 0.390691 18.5242 0.381704 18.4942L0.372716 18.4624L0.346811 18.3722L0.342053 18.355V18.3516L0.336766 18.3322L0.310332 18.2431L0.306103 18.2281L0.301874 18.2052C0.292886 18.1702 0.284956 18.1395 0.277555 18.1106L0.272268 18.0939L0.26751 18.0755C0.260637 18.0471 0.252707 18.0165 0.244777 17.982L0.236847 17.9486V17.9408C0.231031 17.9157 0.223101 17.8851 0.215699 17.8495L0.204597 17.8055C0.198253 17.7782 0.191909 17.7498 0.185036 17.7153L0.180807 17.6941L0.176049 17.6719C0.169705 17.6418 0.163889 17.6117 0.158074 17.5822L0.15173 17.541C0.1475 17.5199 0.1438 17.4987 0.13957 17.4776V17.4664V17.457V17.4536L0.13164 17.4091V17.4035L0.120538 17.3384C0.116837 17.3178 0.113665 17.2972 0.110493 17.2766L0.0999196 17.2087C0.0967476 17.1892 0.0941042 17.1697 0.0909321 17.153C0.0877601 17.1363 0.0840594 17.1046 0.0803586 17.0801L0.0771866 17.0561L0.0740145 17.0322C0.0703138 17.0038 0.0666131 16.9765 0.063441 16.9481L0.0512815 16.9047V16.8969C0.0459947 16.8646 0.0459948 16.8379 0.040708 16.8134C0.040708 16.7984 0.0375359 16.7833 0.0359499 16.7683V16.7627C0.0333065 16.736 0.0306632 16.7071 0.0280198 16.6803C0.0280198 16.6647 0.0253764 16.6486 0.0237904 16.633V16.6297C0.0216757 16.6067 0.0197372 16.5836 0.017975 16.5606C0.017975 16.54 0.0148029 16.52 0.0137456 16.4994C0.0126882 16.4788 0.0111022 16.4587 0.00951615 16.4387C0.00951615 16.4159 0.00687278 16.3931 0.00581543 16.3697C0.00475808 16.3463 0.00581543 16.3313 0.00264338 16.314C-0.000528676 16.2967 0.00264338 16.2678 0 16.245V16.2416C0 16.2221 0 16.2027 0 16.1832C0 16.1637 0 16.1525 0 16.1375V16.1152C0 16.0941 0 16.0724 0 16.0512C0 16.0301 0 16.0167 0 15.9994V15.8697C0 15.843 0 15.8163 0 15.7896C0 15.7706 0 15.7517 0 15.7339C0 15.7161 0 15.6866 0 15.6626C0 15.6493 0 15.6365 0 15.6231V15.6036C0 15.5735 -4.92367e-10 15.5479 0.00370073 15.5223C0.00370073 15.5073 0.00370073 15.4917 0.00370073 15.4767C0.00370073 15.4522 0.0063441 15.426 0.0084588 15.3948C0.0084588 15.3804 0.0084588 15.3653 0.0116309 15.3508C0.0116309 15.323 0.0158603 15.2952 0.017975 15.2673V15.2401V15.2206C0.0204421 15.1927 0.0230855 15.1649 0.0259051 15.1371L0.0301345 15.0931V15.0842C0.0301345 15.0591 0.0354212 15.0318 0.0396506 14.9995C0.0396506 14.9895 0.0396506 14.9795 0.0433514 14.9695V14.955V14.9494C0.0465234 14.9216 0.0502241 14.8938 0.0539249 14.8659L0.0592116 14.8264C0.063441 14.7963 0.0676704 14.7663 0.0718998 14.7368L0.0771866 14.7034V14.6984C0.081416 14.6705 0.0861741 14.6399 0.0919895 14.6048L0.0983336 14.5659C0.10362 14.5336 0.109436 14.5007 0.115251 14.4679L0.120009 14.4423V14.4283C0.125825 14.396 0.132169 14.3626 0.138513 14.3304L0.1438 14.3025V14.2975C0.150144 14.2652 0.157017 14.2318 0.163889 14.199V14.1884L0.168119 14.1678C0.174463 14.1372 0.181864 14.1049 0.190323 14.067L0.197196 14.0375C0.204597 14.0058 0.212527 13.9713 0.222572 13.9289L0.226273 13.9139L0.229445 13.9017C0.238433 13.8644 0.247949 13.8265 0.258522 13.7853L0.261166 13.7747L0.264338 13.763C0.274911 13.7224 0.284427 13.6862 0.293415 13.6517L0.300288 13.6261C0.309275 13.5932 0.320377 13.5543 0.331479 13.5147V13.5103L0.337295 13.4902C0.348926 13.4502 0.360557 13.4112 0.37113 13.3756L0.376945 13.3561C0.388576 13.3177 0.401265 13.2765 0.416067 13.2297L0.419239 13.2191V13.2152C0.432456 13.1729 0.446731 13.13 0.459419 13.0905L0.465763 13.0721C0.47898 13.0315 0.493254 12.9903 0.506471 12.9519L0.509643 12.943L0.512815 12.9341C0.529204 12.8873 0.542949 12.8489 0.555638 12.8121L0.560924 12.7971C0.576256 12.7554 0.592116 12.7119 0.608505 12.6679L0.611677 12.6596C0.627537 12.6167 0.644984 12.5716 0.664545 12.5215L0.668245 12.5121C0.68622 12.4658 0.703138 12.4224 0.721113 12.3801L0.726928 12.3656C0.74226 12.3272 0.759178 12.286 0.779796 12.2365L0.78614 12.2214C0.802 12.1836 0.819447 12.1413 0.84218 12.0889L0.846938 12.0778C0.870728 12.0221 0.890818 11.9765 0.909321 11.9347C2.01108 9.44055 3.65843 7.70354 5.2545 6.02443L5.28622 5.99102C6.21458 5.0134 7.08108 4.17885 7.93489 3.44006C8.91139 2.58603 9.95187 1.81653 11.0461 1.13908C11.6545 0.757885 12.3072 0.461453 12.988 0.257211C13.5714 0.0873837 14.1738 0.000872621 14.7791 0C15.5931 0.00618739 16.4008 0.150951 17.1708 0.428686C17.9077 0.693821 18.6209 1.02712 19.3019 1.42468C20.3897 2.03985 21.4333 2.73801 22.4243 3.51355C23.3571 4.24521 24.2384 5.04696 25.0613 5.91252C25.9204 6.82766 26.7067 7.81546 27.4123 8.866C28.0718 9.80393 28.616 10.8258 29.0322 11.9074C29.3035 12.6639 29.534 13.4358 29.7227 14.2196C29.8872 14.9008 29.9797 15.5991 29.9986 16.3018C30.0116 16.9903 29.9324 17.6774 29.7634 18.3427C29.5642 19.104 29.2812 19.8381 28.9201 20.5301C28.4059 21.5457 27.8042 22.5094 27.1226 23.409C26.4439 24.2921 25.7173 25.1332 24.9466 25.9282C24.114 26.8049 23.2368 27.6334 22.3191 28.4102C21.3585 29.2247 20.3511 29.9758 19.3025 30.6594C18.0811 31.5076 16.6559 31.9725 15.1931 32ZM17.4426 28.4536C16.8326 28.8317 16.1737 29.1145 15.4865 29.2932C16.1737 29.1145 16.8326 28.8317 17.4426 28.4536ZM8.46779 27.1764C8.53176 27.2221 8.59785 27.2683 8.66393 27.3134C8.59097 27.2633 8.527 27.2182 8.46779 27.1764ZM6.23572 25.2151L6.34833 25.3303L6.23572 25.2151ZM7.31264 14.0052L7.27774 14.0848V14.091L7.24655 14.1644L7.24338 14.1728L7.21377 14.2446V14.2485V14.2524L7.1847 14.3259V14.3309L7.15562 14.4072V14.4105L7.12919 14.4823V14.4874V14.4918L7.1054 14.5592L7.10222 14.5675L7.07949 14.6343V14.6399V14.6444C7.07209 14.6655 7.06522 14.6883 7.05729 14.7134V14.719C7.0483 14.7473 7.04143 14.7685 7.03561 14.7891L7.03244 14.7997L7.01393 14.8637L7.01023 14.8771C7.00424 14.8975 6.99843 14.9179 6.99279 14.9383V14.9455V14.9528L6.9764 15.014L6.94944 15.0318L6.94626 15.0452L6.93358 15.0953L6.92988 15.1103C6.92512 15.1304 6.92036 15.1504 6.9156 15.1705L6.9119 15.1866L6.89974 15.2423L6.89657 15.2579L6.89234 15.279L6.88547 15.313V15.3219V15.3314L6.87648 15.3776V15.3865L6.86591 15.4154L6.85956 15.4511L6.85639 15.47V15.4783V15.49C6.85375 15.5073 6.8511 15.524 6.84846 15.5413L6.84529 15.5624L6.83841 15.6125L6.83524 15.6337C6.83524 15.6504 6.83101 15.6665 6.8289 15.6832V15.696V15.7088C6.8289 15.7244 6.8252 15.74 6.82361 15.7556V15.7712V15.7851V15.8001C6.82361 15.8107 6.82361 15.8213 6.82097 15.8313V15.8575V15.8714C6.82097 15.882 6.82097 15.8931 6.82097 15.9037C6.82097 15.9143 6.82097 15.9198 6.82097 15.9282C6.82097 15.9365 6.82097 15.9571 6.81833 15.9716C6.81833 15.9772 6.81833 15.9827 6.81833 15.9889V15.9989C6.81833 16.0134 6.81833 16.0278 6.81833 16.0429C6.81833 16.0579 6.81833 16.064 6.81833 16.0746C6.81833 16.0868 6.81833 16.0997 6.81833 16.1119V16.147C6.81833 16.1609 6.81833 16.1748 6.81833 16.1887V16.2895C6.81833 16.3012 6.81833 16.3134 6.81833 16.3251C6.81833 16.3368 6.81833 16.3502 6.81833 16.363V16.3953C6.81833 16.4086 6.81833 16.422 6.81833 16.4354V16.4515V16.4677C6.81833 16.4766 6.81833 16.4849 6.81833 16.4938V16.5072V16.5244V16.5411C6.81833 16.5523 6.81833 16.564 6.81833 16.5751V16.594V16.6146V16.6402C6.81833 16.6553 6.82097 16.6703 6.82255 16.6853C6.82255 16.6915 6.82255 16.697 6.82255 16.7032V16.7132C6.82255 16.7288 6.82573 16.7438 6.82784 16.7588V16.7705V16.7861L6.83101 16.8095L6.83366 16.8306L6.83736 16.8574V16.8707L6.84106 16.8963V16.9097V16.9258L6.84423 16.9448V16.9609V16.9771L6.8474 16.9954L6.85427 17.0333V17.0439L6.85798 17.065V17.0756L6.86326 17.1046L6.86749 17.1257C6.87066 17.1424 6.87401 17.1589 6.87754 17.1753L6.88229 17.1992L6.8897 17.2332L6.89287 17.2488V17.2604V17.271L6.90397 17.32L6.90926 17.3428C6.91402 17.3629 6.91824 17.3796 6.92195 17.3946L6.92723 17.4158L6.94045 17.4664L6.94309 17.4765L6.94574 17.4865C6.94997 17.5032 6.95472 17.5193 6.95895 17.536L6.96477 17.5577L6.97904 17.6084L6.98169 17.6179V17.6262L6.99807 17.6819V17.6902V17.6992L7.00653 17.7259L7.01552 17.7543L7.01922 17.7654V17.7721L7.03297 17.815L7.0372 17.8278L7.04301 17.845V17.8528L7.0594 17.9018L7.06469 17.9179L7.08583 17.9781L7.08901 17.9864V17.992L7.11174 18.0549L7.11597 18.066L7.13976 18.1301L7.14293 18.1379L7.16408 18.1935L7.16778 18.203V18.2069V18.2119C7.17624 18.2336 7.18523 18.2559 7.19421 18.2782L7.19739 18.2865L7.22382 18.3522L7.22752 18.3617L7.24814 18.4112L7.25395 18.4251L7.25924 18.4374L7.28726 18.5036V18.5075L7.29043 18.5148L7.32004 18.5827V18.5883V18.5922L7.3285 18.6111L7.35123 18.6629V18.6662L7.36233 18.6901L7.38454 18.7397C8.07484 20.0099 8.93698 21.1676 9.94385 22.1764C10.7428 23.0724 11.6849 23.8138 12.7273 24.3666C13.4729 24.8267 14.3161 25.0827 15.1799 25.111C15.9924 25.0958 16.7841 24.8377 17.4627 24.3666C18.5997 23.6198 19.6515 22.7381 20.5977 21.7388C21.4771 20.8661 22.2219 19.8545 22.8055 18.7402C23.6725 17.0322 23.5065 15.7896 22.8678 13.9523C22.3502 12.7274 21.6209 11.6143 20.7172 10.6698C19.772 9.67897 18.6943 8.83906 17.5182 8.17676C16.7562 7.69857 15.8936 7.42676 15.0075 7.38564C14.2795 7.39376 13.567 7.60902 12.9457 8.00863C11.7714 8.75516 10.6956 9.66134 9.74613 10.7038L9.72921 10.7216C8.7411 11.6525 7.92284 12.7657 7.31475 14.0063L7.31264 14.0052ZM5.89473 24.8615L6.09087 25.0664L5.89473 24.8615ZM23.1116 23.6423C22.9577 23.8093 22.7944 23.9841 22.6204 24.1679C22.4169 24.3822 22.2081 24.5954 21.9961 24.8053C22.2075 24.5954 22.419 24.3822 22.6204 24.1679C22.7954 23.983 22.9583 23.8082 23.1116 23.6412V23.6423ZM26.2011 19.2285C26.1641 19.3048 26.1261 19.3822 26.087 19.4595C25.8314 19.9643 25.5508 20.4545 25.2464 20.9282C25.5508 20.4545 25.8314 19.9643 26.087 19.4595C26.1266 19.3811 26.1626 19.3037 26.2017 19.2268L26.2011 19.2285ZM26.5511 13.0649C26.7425 13.685 26.8827 14.3213 26.9704 14.9667C26.8839 14.3205 26.7436 13.6835 26.5511 13.0632V13.0649ZM21.9115 5.90139C22.1896 6.16417 22.4594 6.43344 22.7209 6.70921C23.4704 7.50752 24.1565 8.36927 24.7721 9.28578C25.0396 9.6844 25.2812 10.0747 25.4901 10.4466C24.7135 9.08772 23.7837 7.83281 22.7209 6.70921C22.4601 6.4327 22.1903 6.16342 21.9115 5.90139ZM17.0915 2.46522C17.2845 2.56321 17.4828 2.6701 17.6969 2.79147C18.2906 3.12551 18.8748 3.49518 19.4325 3.88322C18.8758 3.49351 18.2916 3.12829 17.6974 2.79147C17.4828 2.67233 17.285 2.56098 17.0915 2.46522ZM7.66791 17.8055C7.56821 17.5611 7.48414 17.3101 7.41626 17.0539C7.33116 16.736 7.2827 16.4086 7.27193 16.0785C7.30131 16.6747 7.43576 17.26 7.66843 17.8044L7.66791 17.8055Z" fill="white"/>
</svg>
