<svg width="37" height="22" viewBox="0 0 37 22" fill="none" xmlns="http://www.w3.org/2000/svg">
<g clip-path="url(#clip0_155_1646)">
<path fill-rule="evenodd" clip-rule="evenodd" d="M33.8653 10.2453C34.0854 10.5511 34.1076 11.0331 33.8739 11.4066C33.6653 11.7403 32.4166 13.0205 32.0103 13.4319C31.658 13.7892 31.1826 14.1471 30.7147 14.1471H20.9172C19.5931 14.1471 19.5132 13.7112 19.5132 12.7259V8.72897C19.5132 7.72264 19.8191 7.43176 20.7233 7.43176H30.7147C31.1826 7.43176 31.599 7.66364 32.0773 8.13576C32.4834 8.5364 33.6963 10.01 33.8653 10.2453Z" fill="#33CCCC"/>
<path fill-rule="evenodd" clip-rule="evenodd" d="M33.8739 11.4066C34.1076 11.0331 34.0854 10.5511 33.8653 10.2453C33.6963 10.01 32.4834 8.5364 32.0773 8.13576C31.599 7.66364 31.1826 7.43176 30.7147 7.43176H20.7233C19.8191 7.43176 19.5132 7.72264 19.5132 8.72897V12.7259C19.5132 13.7112 19.5931 14.1471 20.9172 14.1471H30.7147C31.1826 14.1471 31.658 13.7892 32.0103 13.4319C32.4166 13.0205 33.6653 11.7403 33.8739 11.4066ZM21.7343 8.95091V8.97722C21.3256 9.20223 20.8837 9.4593 20.4851 10.0126V8.95627C20.4851 8.79754 20.4972 8.69537 20.6875 8.69537H21.5062C21.7231 8.69537 21.7343 8.8224 21.7343 8.95091ZM27.2271 12.7374V12.7941C27.2271 12.7993 27.2273 12.8051 27.2274 12.8113C27.2294 12.8878 27.2331 13.0319 26.9879 13.032H26.1352C25.9263 13.032 25.9316 12.8653 25.9337 12.7985C25.9339 12.7929 25.934 12.7879 25.934 12.7838V12.3613H25.9349V10.3052C25.935 10.0218 25.8937 9.81989 25.8112 9.69947C25.7285 9.57904 25.5939 9.51883 25.4072 9.51883C25.0035 9.51883 24.7158 9.88096 24.5487 10.0914C24.5279 10.1175 24.5091 10.1412 24.492 10.1617V12.7374H24.4911V12.7941C24.4911 12.7993 24.4912 12.8051 24.4914 12.8114C24.4933 12.8878 24.497 13.0319 24.2518 13.0319H23.4102C23.2015 13.0319 23.2069 12.8652 23.209 12.7985C23.2092 12.7928 23.2093 12.7878 23.2093 12.7837V12.3612H23.2104V10.3051C23.21 10.0217 23.1695 9.81978 23.0888 9.69936C23.0081 9.57893 22.8761 9.51872 22.6928 9.51872C22.2597 9.51872 21.9776 9.89513 21.8215 10.1034C21.8055 10.1247 21.7908 10.1443 21.7775 10.1616V12.7941C21.7775 12.7993 21.7776 12.8051 21.7778 12.8113C21.7797 12.8878 21.7834 13.0318 21.5383 13.0318H20.6859C20.4771 13.0318 20.4825 12.8652 20.4846 12.7984C20.4848 12.7927 20.485 12.7877 20.485 12.7837V11.156C20.485 10.1817 21.6191 9.23092 21.8696 9.02096C21.8933 9.00109 21.909 8.98785 21.9152 8.98186C22.2338 8.72742 22.6834 8.59592 23.07 8.59592C23.4041 8.59594 23.6761 8.65794 23.886 8.78192C24.0959 8.9059 24.253 9.09896 24.3571 9.3611C24.5689 9.11988 24.7897 8.93202 25.0196 8.79754C25.2487 8.66328 25.5117 8.59348 25.7793 8.59592C26.7449 8.59581 27.2277 9.12884 27.2277 10.195V12.7374H27.2271ZM29.993 12.9944C30.8926 12.9944 31.6186 12.552 31.9217 11.7604V11.7603C31.9421 11.7077 31.8906 11.5974 31.7743 11.5975H31.0621C31.0621 11.5975 30.8874 11.5899 30.8022 11.7255C30.6062 12.0371 30.3812 12.1961 30.0013 12.1961C29.3786 12.1961 29.0257 11.8129 29.0093 11.1025H31.7743C31.9922 11.1025 32.0431 10.953 32.0365 10.7837C31.9847 9.45896 31.1688 8.63657 29.9524 8.63657C28.7227 8.63657 27.8292 9.56235 27.8292 10.8396C27.8292 12.1324 28.6899 12.9944 29.993 12.9944ZM29.0093 10.3846C29.075 9.80959 29.4355 9.45846 29.9524 9.45846C30.534 9.45846 30.8128 9.88164 30.8621 10.3846H29.0093Z" fill="white"/>
<path fill-rule="evenodd" clip-rule="evenodd" d="M8.04908 7.46829C7.93955 7.29885 7.79748 7.15146 7.63059 7.03415C7.46371 6.92033 7.28046 6.83109 7.08669 6.76932C6.87149 6.70127 6.64921 6.65644 6.42391 6.63564C6.16615 6.61103 5.90729 6.59914 5.64831 6.60002H3.37861C3.17452 6.60002 2.96058 6.73015 2.96058 6.97554V10.5484C3.2481 11.1438 3.80818 11.776 4.44494 12.0781V11.3695C4.44494 10.9956 4.73499 10.9121 4.85497 10.9121H5.52607C6.45048 10.9121 7.15602 10.7237 7.64271 10.3468C8.1294 9.9704 8.37272 9.41137 8.37272 8.66964C8.3741 8.45532 8.34848 8.24164 8.29648 8.03336C8.24477 7.83366 8.16129 7.64301 8.04908 7.46829ZM6.72645 9.30318C6.64809 9.43522 6.5312 9.54177 6.39056 9.60944C6.23812 9.68003 6.07346 9.72238 5.90502 9.73431C5.72158 9.75018 5.53216 9.75814 5.33674 9.75817H4.69899C4.54299 9.75817 4.44494 9.63489 4.44494 9.45302V7.99229C4.44494 7.82847 4.55496 7.75975 4.68688 7.75975H5.33674C5.54843 7.75975 5.74695 7.76568 5.9323 7.77754C6.09913 7.78493 6.26296 7.82333 6.41491 7.89066C6.55033 7.95324 6.66242 8.05508 6.73572 8.18212C6.81296 8.31277 6.85158 8.49715 6.85164 8.73526C6.85164 8.97703 6.80991 9.16633 6.72645 9.30318ZM4.44494 12.309C3.74461 12.0374 3.2751 11.7133 2.96058 11.392V13.1168C2.96058 13.1168 2.93468 13.3981 3.21671 13.3981H4.20692C4.47856 13.3981 4.44506 13.1168 4.44506 13.1168V12.309H4.44494ZM18.4782 8.47956H17.5895C17.4089 8.47956 17.2899 8.55326 17.2183 8.74607C17.1467 8.93889 16.2047 11.4857 16.2047 11.4857C16.2047 11.4857 15.3037 8.9915 15.2328 8.79837C15.1619 8.60525 15.0454 8.47956 14.8356 8.47956H14.0191C13.731 8.47956 13.731 8.69923 13.7667 8.78633C13.7957 8.85673 14.9139 11.8321 15.3398 12.9656C15.4403 13.2333 15.4799 13.3138 15.483 13.4129C15.4862 13.5121 15.3823 13.7202 15.3106 13.8397C15.2776 13.8942 15.2398 13.9458 15.1975 13.9939C16.0325 13.7512 16.9948 12.8706 17.4925 11.9166C17.9846 10.5871 18.6335 8.83078 18.6617 8.74093C18.7069 8.59541 18.7065 8.47956 18.4782 8.47956ZM14.5541 14.2469C14.477 14.2456 14.4 14.2402 14.3234 14.2307C14.2298 14.2187 14.0545 14.2357 14.0545 14.3847V15.0508C14.0545 15.305 14.1797 15.322 14.2486 15.337C14.456 15.379 14.6675 15.3988 14.8793 15.3962C15.1601 15.3962 15.4043 15.3466 15.6122 15.2475C15.822 15.1466 16.009 15.0061 16.1621 14.8341C16.331 14.6427 16.4737 14.4308 16.5866 14.2039C16.7107 13.9601 16.8298 13.6915 16.9439 13.3981C16.9439 13.3981 16.9928 13.2655 17.0734 13.0483C16.8283 13.2885 15.6729 14.3521 14.5541 14.2469ZM13.2196 9.2703C13.1713 9.15897 13.1055 9.05565 13.0243 8.96409C12.9435 8.8762 12.851 8.79917 12.7492 8.73501C12.6393 8.66569 12.5228 8.60692 12.4013 8.55954C12.2771 8.51248 12.1495 8.47475 12.0194 8.44668C11.8715 8.41524 11.7214 8.39437 11.5704 8.38424C11.4074 8.37245 11.224 8.36651 11.0205 8.36642C9.67422 8.36642 8.90764 8.77948 8.72073 9.60561C8.65995 9.86195 8.92116 9.87701 8.92116 9.87701H9.74936C9.96557 9.87701 9.95627 9.80938 10.0612 9.61958C10.099 9.5163 10.167 9.42595 10.2569 9.35962C10.4158 9.24075 10.654 9.18132 10.9716 9.1813C11.2771 9.1813 11.499 9.23873 11.6374 9.35358C11.7758 9.46844 11.8573 9.6429 11.8818 9.87701C11.8818 10.1485 11.7946 10.3296 11.4565 10.3296C10.6324 10.3005 9.74685 10.391 9.24808 10.6686C8.7493 10.9463 8.46734 11.489 8.46734 12.0718C8.46734 12.3096 8.51111 12.5177 8.59871 12.6963C8.68357 12.8714 8.80904 13.0251 8.96528 13.1452C9.13107 13.2708 9.32109 13.3628 9.52412 13.4159C9.75488 13.4773 9.99331 13.5074 10.2326 13.5053C10.591 13.5053 10.9077 13.4616 11.1826 13.3744C11.4575 13.2872 11.8828 13 11.937 12.9581V13.1112C11.937 13.2629 11.9845 13.3983 12.171 13.3983H13.1341C13.3291 13.3983 13.3724 13.2629 13.3724 13.0964V10.2161C13.3741 10.0371 13.3619 9.85818 13.3358 9.68093C13.3152 9.53982 13.2761 9.40184 13.2196 9.2703ZM11.9063 12.0943C11.9063 12.0943 11.6576 12.5958 10.77 12.5958C10.5258 12.5958 10.3273 12.5423 10.1745 12.4353C10.0216 12.3283 9.94522 12.1617 9.94534 11.9357C9.94534 11.6421 10.0696 11.4348 10.3181 11.3139C10.5664 11.1931 11.0634 11.1241 11.4359 11.1326C11.8084 11.1411 11.9063 11.3695 11.9063 11.5273V12.0944V12.0943Z" fill="white"/>
</g>
<defs>
<clipPath id="clip0_155_1646">
<rect width="31.08" height="8.8" fill="white" transform="translate(2.95996 6.59998)"/>
</clipPath>
</defs>
</svg>
