<svg width="12" height="12" viewBox="0 0 12 12" fill="none" xmlns="http://www.w3.org/2000/svg">
<path d="M0.0313053 4.53466C0.109859 4.2811 0.32538 4.10101 0.58036 4.07703L4.04388 3.74887L5.41345 0.403834C5.51444 0.158687 5.74442 0 5.99995 0C6.25548 0 6.48547 0.158687 6.58645 0.404407L7.95602 3.74887L11.4201 4.07703C11.6746 4.10159 11.8896 4.2811 11.9686 4.53466C12.0476 4.78821 11.9746 5.06632 11.7821 5.24163L9.16409 7.6375L9.93608 11.186C9.99257 11.4469 9.89552 11.7166 9.68806 11.8731C9.57654 11.9572 9.44608 12 9.31451 12C9.20108 12 9.08856 11.9681 8.98757 11.905L5.99995 10.0418L3.01343 11.905C2.79489 12.0422 2.5194 12.0297 2.3124 11.8731C2.10484 11.7162 2.00788 11.4464 2.06437 11.186L2.83636 7.6375L0.218352 5.24211C0.0258121 5.06632 -0.0477066 4.78869 0.0313053 4.53466Z" fill="#FFAF34"/>
</svg>
