<svg width="24" height="24" viewBox="0 0 24 24" fill="none" xmlns="http://www.w3.org/2000/svg">
<mask id="path-1-inside-1_302_1215" fill="white">
<path fill-rule="evenodd" clip-rule="evenodd" d="M7.83333 11.1667C7.83333 9.78595 6.71405 8.66667 5.33333 8.66667H4.5V4.5C4.5 3.11929 5.61929 2 7 2H17C18.3807 2 19.5 3.11929 19.5 4.5V8.66667H18.6667C17.286 8.66667 16.1667 9.78595 16.1667 11.1667V12.8333H7.83333V11.1667ZM18.6657 10.3348H21.1654C21.3902 10.3212 21.6101 10.4047 21.7694 10.564C21.9287 10.7232 22.0121 10.9431 21.9986 11.168V19.5003C22.0121 19.7252 21.9287 19.945 21.7694 20.1043C21.6101 20.2636 21.3902 20.3471 21.1654 20.3335H19.4989V22H17.8325V20.3335H6.1675V22H4.50107V20.3335H2.83464C2.60978 20.3471 2.38991 20.2636 2.23062 20.1043C2.07134 19.945 1.9879 19.7252 2.00142 19.5003V11.168C1.9879 10.9431 2.07134 10.7232 2.23062 10.564C2.38991 10.4047 2.60978 10.3212 2.83464 10.3348H5.33428C5.55913 10.3212 5.77901 10.4047 5.93829 10.564C6.09758 10.7232 6.18101 10.9431 6.1675 11.168V14.5009H17.8325V11.168C17.819 10.9431 17.9024 10.7232 18.0617 10.564C18.221 10.4047 18.4409 10.3212 18.6657 10.3348Z"/>
</mask>
<path d="M4.5 8.66667H3.5V9.66667H4.5V8.66667ZM19.5 8.66667V9.66667H20.5V8.66667H19.5ZM16.1667 12.8333V13.8333H17.1667V12.8333H16.1667ZM7.83333 12.8333H6.83333V13.8333H7.83333V12.8333ZM21.1654 10.3348V11.3348H21.1954L21.2254 11.333L21.1654 10.3348ZM18.6657 10.3348L18.6057 11.333L18.6357 11.3348H18.6657V10.3348ZM21.9986 11.168L21.0004 11.108L20.9986 11.138V11.168H21.9986ZM21.9986 19.5003H20.9986V19.5303L21.0004 19.5603L21.9986 19.5003ZM21.7694 20.1043L21.0623 19.3972L21.0623 19.3972L21.7694 20.1043ZM21.1654 20.3335L21.2254 19.3353L21.1954 19.3335H21.1654V20.3335ZM19.4989 20.3335V19.3335H18.4989V20.3335H19.4989ZM19.4989 22V23H20.4989V22H19.4989ZM17.8325 22H16.8325V23H17.8325V22ZM17.8325 20.3335H18.8325V19.3335H17.8325V20.3335ZM6.1675 20.3335V19.3335H5.1675V20.3335H6.1675ZM6.1675 22V23H7.1675V22H6.1675ZM4.50107 22H3.50107V23H4.50107V22ZM4.50107 20.3335H5.50107V19.3335H4.50107V20.3335ZM2.83464 20.3335V19.3335H2.8046L2.77463 19.3353L2.83464 20.3335ZM2.23062 20.1043L2.93774 19.3972L2.93773 19.3972L2.23062 20.1043ZM2.00142 19.5003L2.99962 19.5603L3.00142 19.5303V19.5003H2.00142ZM2.00142 11.168H3.00142V11.138L2.99962 11.108L2.00142 11.168ZM2.83464 10.3348L2.77463 11.333L2.8046 11.3348H2.83464V10.3348ZM5.33428 10.3348V11.3348H5.36431L5.39429 11.333L5.33428 10.3348ZM5.93829 10.564L6.64541 9.85686L6.64541 9.85686L5.93829 10.564ZM6.1675 11.168L5.1693 11.108L5.1675 11.138V11.168H6.1675ZM6.1675 14.5009H5.1675V15.5009H6.1675V14.5009ZM17.8325 14.5009V15.5009H18.8325V14.5009H17.8325ZM17.8325 11.168H18.8325V11.138L18.8307 11.108L17.8325 11.168ZM5.33333 9.66667C6.16176 9.66667 6.83333 10.3382 6.83333 11.1667H8.83333C8.83333 9.23367 7.26633 7.66667 5.33333 7.66667V9.66667ZM4.5 9.66667H5.33333V7.66667H4.5V9.66667ZM3.5 4.5V8.66667H5.5V4.5H3.5ZM7 1C5.067 1 3.5 2.567 3.5 4.5H5.5C5.5 3.67157 6.17157 3 7 3V1ZM17 1H7V3H17V1ZM20.5 4.5C20.5 2.567 18.933 1 17 1V3C17.8284 3 18.5 3.67157 18.5 4.5H20.5ZM20.5 8.66667V4.5H18.5V8.66667H20.5ZM18.6667 9.66667H19.5V7.66667H18.6667V9.66667ZM17.1667 11.1667C17.1667 10.3382 17.8382 9.66667 18.6667 9.66667V7.66667C16.7337 7.66667 15.1667 9.23367 15.1667 11.1667H17.1667ZM17.1667 12.8333V11.1667H15.1667V12.8333H17.1667ZM7.83333 13.8333H16.1667V11.8333H7.83333V13.8333ZM6.83333 11.1667V12.8333H8.83333V11.1667H6.83333ZM21.1654 9.33475H18.6657V11.3348H21.1654V9.33475ZM22.4765 9.85686C22.1149 9.49528 21.6158 9.30587 21.1054 9.33656L21.2254 11.333C21.1646 11.3366 21.1053 11.3141 21.0623 11.2711L22.4765 9.85686ZM22.9968 11.228C23.0275 10.7176 22.8381 10.2184 22.4765 9.85686L21.0623 11.2711C21.0193 11.2281 20.9967 11.1687 21.0004 11.108L22.9968 11.228ZM22.9986 19.5003V11.168H20.9986V19.5003H22.9986ZM22.4765 20.8114C22.8381 20.4499 23.0275 19.9507 22.9968 19.4403L21.0004 19.5603C20.9967 19.4996 21.0193 19.4402 21.0623 19.3972L22.4765 20.8114ZM21.1054 21.3317C21.6158 21.3624 22.1149 21.173 22.4765 20.8114L21.0623 19.3972C21.1053 19.3542 21.1646 19.3317 21.2254 19.3353L21.1054 21.3317ZM19.4989 21.3335H21.1654V19.3335H19.4989V21.3335ZM20.4989 22V20.3335H18.4989V22H20.4989ZM17.8325 23H19.4989V21H17.8325V23ZM16.8325 20.3335V22H18.8325V20.3335H16.8325ZM6.1675 21.3335H17.8325V19.3335H6.1675V21.3335ZM7.1675 22V20.3335H5.1675V22H7.1675ZM4.50107 23H6.1675V21H4.50107V23ZM3.50107 20.3335V22H5.50107V20.3335H3.50107ZM2.83464 21.3335H4.50107V19.3335H2.83464V21.3335ZM1.52351 20.8114C1.88508 21.173 2.3842 21.3624 2.89464 21.3317L2.77463 19.3353C2.83536 19.3317 2.89473 19.3542 2.93774 19.3972L1.52351 20.8114ZM1.00322 19.4403C0.972541 19.9507 1.16193 20.4499 1.52351 20.8114L2.93773 19.3972C2.98074 19.4402 3.00327 19.4996 2.99962 19.5603L1.00322 19.4403ZM1.00142 11.168V19.5003H3.00142V11.168H1.00142ZM1.52351 9.85686C1.16194 10.2184 0.972541 10.7176 1.00322 11.228L2.99962 11.108C3.00327 11.1687 2.98074 11.2281 2.93774 11.2711L1.52351 9.85686ZM2.89464 9.33656C2.38421 9.30587 1.88508 9.49528 1.52351 9.85686L2.93774 11.2711C2.89473 11.3141 2.83535 11.3366 2.77463 11.333L2.89464 9.33656ZM5.33428 9.33475H2.83464V11.3348H5.33428V9.33475ZM6.64541 9.85686C6.28383 9.49528 5.78471 9.30587 5.27427 9.33656L5.39429 11.333C5.33356 11.3366 5.27419 11.3141 5.23118 11.2711L6.64541 9.85686ZM7.16569 11.228C7.19638 10.7176 7.00698 10.2184 6.64541 9.85686L5.23118 11.2711C5.18817 11.2281 5.16565 11.1687 5.1693 11.108L7.16569 11.228ZM7.1675 14.5009V11.168H5.1675V14.5009H7.1675ZM17.8325 13.5009H6.1675V15.5009H17.8325V13.5009ZM16.8325 11.168V14.5009H18.8325V11.168H16.8325ZM17.3546 9.85686C16.993 10.2184 16.8036 10.7176 16.8343 11.228L18.8307 11.108C18.8344 11.1687 18.8118 11.2281 18.7688 11.2711L17.3546 9.85686ZM18.7257 9.33656C18.2153 9.30587 17.7162 9.49528 17.3546 9.85686L18.7688 11.2711C18.7258 11.3141 18.6664 11.3366 18.6057 11.333L18.7257 9.33656Z" fill="#817F95" mask="url(#path-1-inside-1_302_1215)"/>
</svg>
