<svg width="24" height="24" viewBox="0 0 24 24" fill="none" xmlns="http://www.w3.org/2000/svg">
<path fill-rule="evenodd" clip-rule="evenodd" d="M7.83333 11.1667C7.83333 9.78595 6.71405 8.66667 5.33333 8.66667H4.5V4.5C4.5 3.11929 5.61929 2 7 2H17C18.3807 2 19.5 3.11929 19.5 4.5V8.66667H18.6667C17.286 8.66667 16.1667 9.78595 16.1667 11.1667V12.8333H7.83333V11.1667ZM18.6657 10.3348H21.1654C21.3902 10.3212 21.6101 10.4047 21.7694 10.564C21.9287 10.7232 22.0121 10.9431 21.9986 11.168V19.5003C22.0121 19.7252 21.9287 19.945 21.7694 20.1043C21.6101 20.2636 21.3902 20.3471 21.1654 20.3335H19.4989V22H17.8325V20.3335H6.1675V22H4.50107V20.3335H2.83464C2.60978 20.3471 2.38991 20.2636 2.23062 20.1043C2.07134 19.945 1.9879 19.7252 2.00142 19.5003V11.168C1.9879 10.9431 2.07134 10.7232 2.23062 10.564C2.38991 10.4047 2.60978 10.3212 2.83464 10.3348H5.33428C5.55913 10.3212 5.77901 10.4047 5.93829 10.564C6.09758 10.7232 6.18101 10.9431 6.1675 11.168V14.5009H17.8325V11.168C17.819 10.9431 17.9024 10.7232 18.0617 10.564C18.221 10.4047 18.4409 10.3212 18.6657 10.3348Z"/>
</svg>
